<svg id="图层_1" data-name="图层 1" xmlns="http://www.w3.org/2000/svg" viewBox="0 0 1027.92 909.98"><defs><style>.cls-1{fill:#0f284f;}.cls-2{fill:#fc9835;}</style></defs><title>1</title><path class="cls-1" d="M481.36,442.3v671.55a54.28,54.28,0,0,0,54.28,54.28h10.08l114,114a54.28,54.28,0,0,0,76.77,0l114-114H1455a54.28,54.28,0,0,0,54.28-54.28V442.3A54.28,54.28,0,0,0,1455,388H535.64A54.28,54.28,0,0,0,481.36,442.3Zm982,679.94h-632L818,1135.67,698.08,1255.55,564.77,1122.24H527.25V433.91h936.14Z" transform="translate(-481.36 -388.02)"/><rect class="cls-1" x="192.73" y="205.47" width="642.45" height="45.89"/><rect class="cls-2" x="192.73" y="363.79" width="642.45" height="45.89"/><rect class="cls-1" x="192.73" y="521.99" width="392.93" height="45.89"/></svg>