<svg id="图层_1" data-name="图层 1" xmlns="http://www.w3.org/2000/svg" viewBox="0 0 940.29 939.1"><defs><style>.cls-1{fill:#0f284f;}</style></defs><title>12</title><path class="cls-1" d="M1348.19,1380H573.64a83,83,0,0,1-82.87-82.87V523.77a83,83,0,0,1,82.87-82.87H972.09V546.06H595.93v728.78h730V850.21h105.16v446.92A83,83,0,0,1,1348.19,1380Z" transform="translate(-490.77 -440.9)"/><path class="cls-1" d="M894.16,1039.66a52.59,52.59,0,0,1-37.55-89.39L1314,483.64a52.58,52.58,0,1,1,75.1,73.61L931.72,1023.89A52.48,52.48,0,0,1,894.16,1039.66Z" transform="translate(-490.77 -440.9)"/><path class="cls-1" d="M1431.06,745.56H1325.9V546.06H1129V440.9h219.2a83,83,0,0,1,82.87,82.87Z" transform="translate(-490.77 -440.9)"/></svg>