<svg id="图层_1" data-name="图层 1" xmlns="http://www.w3.org/2000/svg" viewBox="0 0 923.88 1139.53"><defs><style>.cls-1{fill:#0f284f;}.cls-2{fill:#fc9835;}</style></defs><title>2</title><path class="cls-1" d="M1247.92,1032.37a27.18,27.18,0,0,0-20.57-26.35H683.89a27.17,27.17,0,1,0,0,52.71h543.46A27.16,27.16,0,0,0,1247.92,1032.37Z" transform="translate(-498.3 -340.47)"/><path class="cls-2" d="M704.82,858.2h489.11a54.34,54.34,0,0,0,54.34-54.35V604.13a54.35,54.35,0,0,0-54.34-54.35H704.82a54.35,54.35,0,0,0-54.35,54.35V803.85A54.35,54.35,0,0,0,704.82,858.2Zm0-254.07h489.11V803.85H704.82Z" transform="translate(-498.3 -340.47)"/><path class="cls-1" d="M1313.49,340.55H607a104.63,104.63,0,0,0-108.69,100v939.37a104.63,104.63,0,0,0,108.69,100h478.52a37.52,37.52,0,0,0,20.92-8.7l304.62-276.44a27.08,27.08,0,0,0,11.13-20.56V440.55A104.89,104.89,0,0,0,1313.49,340.55ZM1058.34,1426.93H607a51.62,51.62,0,0,1-54.34-48.1V441.1A51.35,51.35,0,0,1,607,393h706.5a51.62,51.62,0,0,1,54.34,47.27v706.51H1167a104.87,104.87,0,0,0-108.69,100ZM1324.13,1200l-211.45,191.38V1248.13A51.63,51.63,0,0,1,1167,1200Z" transform="translate(-498.3 -340.47)"/></svg>