<svg id="图层_1" data-name="图层 1" xmlns="http://www.w3.org/2000/svg" viewBox="0 0 970.34 972.19"><defs><style>.cls-1{fill:#0f284f;}.cls-2{fill:#fc9835;}</style></defs><title>3</title><path class="cls-1" d="M709,1094.63H509.42q-34.07,0-34.08,34.08v233q0,34.07,34.08,34.07H709q34.06,0,34.07-34.07v-233Q743,1094.63,709,1094.63Zm-4.08,230.25q0,34.06-34.07,34.07H549Q515,1359,515,1324.88V1165.64q0-34.08,34.07-34.08H670.81q34.07,0,34.07,34.08Z" transform="translate(-475.33 -423.81)"/><path class="cls-2" d="M866.58,983.1h187.91q39.88,0,39.89,39.88v332.9q0,39.88-39.89,39.89H866.58q-39.89,0-39.89-39.89V1023q0-39.87,39.89-39.88Z" transform="translate(-475.33 -423.81)"/><path class="cls-1" d="M1398.84,849.23h-174A46.09,46.09,0,0,0,1178,894.36v456.5a46.09,46.09,0,0,0,46.83,45.13h174a46.1,46.1,0,0,0,46.83-45.13V894.25A46.09,46.09,0,0,0,1398.84,849.23Zm-5.29,458.08a37.3,37.3,0,0,1-37.89,36.52h-90.78a37.29,37.29,0,0,1-37.89-36.52V937.91a37.29,37.29,0,0,1,37.89-36.51h90.78a37.28,37.28,0,0,1,37.89,36.42Z" transform="translate(-475.33 -423.81)"/><path class="cls-1" d="M1445.67,632.54V423.81H1236.93l70.52,70.52-234.57,235L888.19,544a61.26,61.26,0,0,0-4.35-5l-.62-.62a51.62,51.62,0,0,0-73.06,0L490.41,859.44a52.14,52.14,0,0,0,0,73.34l.62.62a51.67,51.67,0,0,0,73,0L846.1,649.86,1031.59,836l2.2,2,1,1,2,2a50.77,50.77,0,0,0,71.59,0l272.14-273.26Z" transform="translate(-475.33 -423.81)"/></svg>