<svg id="图层_1" data-name="图层 1" xmlns="http://www.w3.org/2000/svg" viewBox="0 0 1066.54 1066.54"><defs><style>.cls-1{fill:#fc9835;}.cls-2{fill:#0f284f;}</style></defs><title>4</title><path class="cls-1" d="M846,376.46H503.23a76.19,76.19,0,0,0-76.18,76.19V795.46a76.18,76.18,0,0,0,76.18,76.18h419v-419A76.19,76.19,0,0,0,846,376.46Zm0,419H503.23V452.65H846Z" transform="translate(-427.05 -376.46)"/><path class="cls-2" d="M1471.27,398.78a76.17,76.17,0,0,0-53.87-22.32H1074.59a76.21,76.21,0,0,0-76.19,76.19v419h419a76.17,76.17,0,0,0,76.18-76.18V452.65A76.16,76.16,0,0,0,1471.27,398.78ZM1417.4,795.46H1074.59V452.65H1417.4Z" transform="translate(-427.05 -376.46)"/><path class="cls-2" d="M503.23,947.82A76.19,76.19,0,0,0,427.05,1024v342.82A76.17,76.17,0,0,0,503.23,1443H846a76.19,76.19,0,0,0,76.19-76.18v-419Zm342.81,419H503.23V1024H846Z" transform="translate(-427.05 -376.46)"/><path class="cls-2" d="M1471.27,970.14a76.17,76.17,0,0,0-53.87-22.32h-419v419a76.19,76.19,0,0,0,76.19,76.18H1417.4a76.17,76.17,0,0,0,76.18-76.18V1024A76.14,76.14,0,0,0,1471.27,970.14Zm-53.87,396.68H1074.59V1024H1417.4Z" transform="translate(-427.05 -376.46)"/><path class="cls-2" d="M998.4,947.82" transform="translate(-427.05 -376.46)"/><path class="cls-2" d="M680.58,1149.4l27-26.89a38.09,38.09,0,1,1,53.87,53.85l-26.9,27,26.9,26.9a38.09,38.09,0,0,1-53.87,53.86l-27-26.89-26.9,26.89a38.09,38.09,0,0,1-53.85-53.86l26.89-26.9-26.89-27a38.08,38.08,0,0,1,53.85-53.85Z" transform="translate(-427.05 -376.46)"/><path class="cls-2" d="M1169.82,586h152.36a38.1,38.1,0,0,1,0,76.19H1169.82a38.1,38.1,0,0,1,0-76.19Z" transform="translate(-427.05 -376.46)"/><path class="cls-2" d="M1165.24,1222.38,1273,1114.58a38.09,38.09,0,0,1,53.86,53.87L1219,1276.24a38.09,38.09,0,0,1-53.86-53.86Z" transform="translate(-427.05 -376.46)"/><path class="cls-2" d="M636.54,586V547.87a38.1,38.1,0,0,1,76.19,0V586h38.09a38.1,38.1,0,0,1,0,76.19H712.73v38.09a38.1,38.1,0,0,1-76.19,0V662.15H598.45a38.1,38.1,0,0,1,0-76.19Z" transform="translate(-427.05 -376.46)"/><path class="cls-2" d="M636.54,586" transform="translate(-427.05 -376.46)"/></svg>