<svg id="图层_1" data-name="图层 1" xmlns="http://www.w3.org/2000/svg" viewBox="0 0 1178.46 1178.54"><defs><style>.cls-1{fill:#fc9835;}.cls-2{fill:#0f284f;}</style></defs><title>5</title><path class="cls-1" d="M1078.09,1010.18a194.51,194.51,0,0,0,78.3-156.67c0-111.22-84.84-196.06-196.06-196.06S764.27,742.53,764.27,853.51a194.56,194.56,0,0,0,78.24,157.15c-74.67,40.21-129.14,110.75-141.12,198.3-2.66,19.41,13,36.67,32.59,36.67h0a32.63,32.63,0,0,0,32.2-28.54c13.13-96.87,92.66-167.52,194.15-167.52s180.87,70.72,194.12,167.31a32.63,32.63,0,0,0,32.43,28.53h0c19.5-.14,35-17.35,32.35-36.68C1207.31,1121.18,1152.82,1050.42,1078.09,1010.18ZM960.33,984.63A130.7,130.7,0,1,1,1091,853.92,130.71,130.71,0,0,1,960.33,984.63Z" transform="translate(-371.15 -320.46)"/><path class="cls-2" d="M1296.47,450.81c70.88,0,122.33,51.45,122.33,122.33v164h-37.59l-130.4-.06v345h168.45v164.29c0,70.88-51.45,122.33-122.33,122.33H1132.87V1200.21H788v168.45H623.82c-70.89,0-122.33-51.45-122.33-122.33V1082.11H669.94V737.2H501.49V573.14c0-70.88,51.44-122.33,122.33-122.33h164V619.26h344.9V450.81h163.76m0-130.35h-294.1V488.92H918.15V320.46H623.82c-143,0-252.67,109.34-252.67,252.68v294.4H539.59v84.23H371.15v294.56c0,143,109.33,252.67,252.67,252.67H918.3V1330.55h84.22V1499h294.41c143,0,252.68-109.34,252.68-252.67V951.69H1381.16V867.47l168,.07V573.14c0-143-109.35-252.68-252.68-252.68Z" transform="translate(-371.15 -320.46)"/></svg>