<svg id="图层_1" data-name="图层 1" xmlns="http://www.w3.org/2000/svg" viewBox="0 0 897.29 890.1"><defs><style>.cls-1{fill:#0f284f;}.cls-2{fill:#fc9835;}</style></defs><title>6</title><path class="cls-1" d="M1282.46,783.32c0,47.89-15,92.79-38.91,137.69-32.92,65.84-74.83,122.71-119.72,179.58a1593.36,1593.36,0,0,1-137.68,146.66c-18,15-32.93,18-50.89,0-52.82-47.54-131.85-136.61-187.76-212.92C708.38,980.93,683.3,930.9,674.87,918c-11-16.8,0-35.91,15-41.9,12-6,29.93,3,38.91,20.95,35.92,80.81,92.78,149.66,152.65,215.51l74.83,74.82c3,3,6,6,9,0,95.78-86.8,158.64-164.62,215.5-269.38,15-29.93,35.92-68.84,41.91-104.76,6-50.88-6-104.75-29.93-149.65C1144.78,576.8,1067,525.92,968.19,522.92c-113.74-3-218.5,71.84-254.41,179.59-9,26.94-12,53.88-12,83.81,0,20.95-12,35.91-29.93,35.91s-29.93-18-29.93-35.91C641.94,633.67,746.7,505,893.36,472c122.72-26.93,251.42,23.95,326.24,125.71,41.91,50.88,62.86,113.74,62.86,185.57Zm0,0" transform="translate(-512.06 -464.9)"/><path class="cls-1" d="M591.06,1295.14h736.3c0-3-3-6-6-9-29.93-53.88-62.86-110.74-92.78-164.62-6-12-9-29.93,0-38.91,3-6,12-12,18-12,12,0,24,3,29.94,12,41.9,74.83,86.8,149.65,128.7,224.48,12,24-3,47.89-29.93,47.89H549.15c-29.93,0-47.89-26.94-29.93-53.88,41.91-71.83,83.81-143.66,122.72-215.5,9-15,23.94-20.95,35.92-18,20.95,6,23.94,32.93,12,53.88-21,38.91-86.8,152.65-98.77,173.6Z" transform="translate(-512.06 -464.9)"/><path class="cls-2" d="M962.2,648.63c-71.83,0-128.7,56.87-128.7,128.71S890.37,906,962.2,906s128.7-56.87,128.7-128.7C1090.9,708.49,1034,648.63,962.2,648.63Zm0,197.55c-38.91,0-68.84-29.93-68.84-68.84s29.93-68.85,68.84-68.85c35.92,0,68.84,29.94,68.84,68.85C1031,813.25,998.12,846.18,962.2,846.18Z" transform="translate(-512.06 -464.9)"/></svg>