<svg id="图层_1" data-name="图层 1" xmlns="http://www.w3.org/2000/svg" viewBox="0 0 178.55 23.4"><defs><style>.cls-1{fill:#da251c;}.cls-2{fill:#fff;}</style></defs><title>LOGO</title><path class="cls-1" d="M19.08,19.09H0V0H19.08ZM.1,19H19V.1H.1Z"/><path class="cls-1" d="M18.3,18.32H.78V.8H18.3ZM.88,18.22H18.2V.9H.88Z"/><rect class="cls-1" x="1.5" y="1.51" width="16.09" height="16.1"/><path class="cls-2" d="M8.91,8.23H8.7a3.1,3.1,0,0,0-.34-.87,2.27,2.27,0,0,0-.54-.64,2,2,0,0,0-.68-.4,2.34,2.34,0,0,0-.79-.13,2.18,2.18,0,0,0-.67.1,2.09,2.09,0,0,0-.6.29A2.3,2.3,0,0,0,4.59,7a2.45,2.45,0,0,0-.34.59A4.38,4.38,0,0,0,3.9,9.44a7.34,7.34,0,0,0,.06,1,5,5,0,0,0,.18.84,3.57,3.57,0,0,0,.33.71,1.75,1.75,0,0,0,.46.51,2.14,2.14,0,0,0,1.38.42A2.84,2.84,0,0,0,7,12.8a2.38,2.38,0,0,0,.61-.23,3.64,3.64,0,0,0,.6-.42,6.19,6.19,0,0,0,.61-.63v.63a5.2,5.2,0,0,1-.62.55,3.13,3.13,0,0,1-.66.38,2.94,2.94,0,0,1-.73.22,4.46,4.46,0,0,1-.84.07,5,5,0,0,1-1.11-.12,4.13,4.13,0,0,1-1-.35,3.93,3.93,0,0,1-.81-.57,3.25,3.25,0,0,1-.6-.78A3.8,3.8,0,0,1,2,9.67a3.92,3.92,0,0,1,.54-2A3.83,3.83,0,0,1,4,6.21a4.4,4.4,0,0,1,1-.39,4.32,4.32,0,0,1,1-.13,3.72,3.72,0,0,1,.81.09A3.83,3.83,0,0,1,7.6,6a2.59,2.59,0,0,0,.63.2.42.42,0,0,0,.31-.13.62.62,0,0,0,.16-.41h.21Z"/><path class="cls-2" d="M15.9,11.91a4.11,4.11,0,0,0,.71.9.7.7,0,0,0,.24.13,1.31,1.31,0,0,0,.27.06v.21H13.55V13a2.27,2.27,0,0,0,.34-.05.71.71,0,0,0,.21-.08.26.26,0,0,0,.1-.11.27.27,0,0,0,0-.12.37.37,0,0,0-.05-.17L14,12.23l-.24-.38-1.07-1.59-1.12,1.38a2,2,0,0,0-.51.85.45.45,0,0,0,.13.29.8.8,0,0,0,.39.2,3.76,3.76,0,0,0,.46,0v.21H9.26V13a1.62,1.62,0,0,0,.76-.26,5.69,5.69,0,0,0,1-1L12.5,9.94,10.63,7.18c-.16-.22-.28-.4-.36-.52l-.17-.23a.83.83,0,0,0-.29-.25,1.2,1.2,0,0,0-.39-.12V5.87h3.65v.19h-.19a.82.82,0,0,0-.44.1.32.32,0,0,0-.12.25.28.28,0,0,0,0,.2l.36.57.91,1.39.78-.94A4.26,4.26,0,0,0,14.87,7,1,1,0,0,0,15,6.59a.45.45,0,0,0,0-.2.41.41,0,0,0-.13-.17.64.64,0,0,0-.25-.11,1.35,1.35,0,0,0-.38-.05V5.87h2.68v.19a1.41,1.41,0,0,0-.5.08,1.47,1.47,0,0,0-.42.27c-.09.09-.32.35-.71.8L13.87,8.9Z"/><path class="cls-1" d="M2.93,22.08a.93.93,0,0,1-1,.68A1,1,0,0,1,.83,21.69,1.05,1.05,0,0,1,1.94,20.6a.91.91,0,0,1,1,.69H2.49A.51.51,0,0,0,1.94,21a.64.64,0,0,0-.65.72.66.66,0,0,0,.65.75.52.52,0,0,0,.55-.34Z"/><path class="cls-1" d="M3.78,20.53v.9a.56.56,0,0,1,.52-.26c.36,0,.58.21.58.64v.91H4.47v-.86c0-.21-.07-.36-.3-.36s-.38.2-.38.49v.73H3.37V20.53Z"/><path class="cls-1" d="M5.6,22.07a.4.4,0,0,0,.42.38.35.35,0,0,0,.35-.18h.42a.75.75,0,0,1-.78.49A.75.75,0,0,1,5.19,22a.77.77,0,0,1,.81-.8.76.76,0,0,1,.81.8v.1Zm.79-.27A.35.35,0,0,0,6,21.47a.34.34,0,0,0-.39.33Z"/><path class="cls-1" d="M7.05,21.59v-.38h.41c0,.05,0,.15,0,.23A.54.54,0,0,1,8,21.17a.56.56,0,0,1,.59.62v.93H8.15v-.86c0-.19-.07-.36-.31-.36s-.37.18-.37.48v.74H7.05Z"/><path class="cls-1" d="M10.52,22.54c0,.55-.22.86-.85.86s-.76-.36-.79-.53H9.3c0,.12.13.22.39.22s.42-.22.42-.52V22.5a.53.53,0,0,1-.52.24A.72.72,0,0,1,8.87,22a.77.77,0,0,1,.76-.82c.33,0,.45.14.48.23a1.34,1.34,0,0,0,0-.19h.41c0,.15,0,.3,0,.44ZM9.29,22a.42.42,0,0,0,.42.45c.26,0,.41-.16.41-.47s-.14-.45-.4-.45A.43.43,0,0,0,9.29,22Z"/><path class="cls-1" d="M13.1,22.72,12.53,22h0l-.56.77h-.48l.8-1.06-.78-1H12l.53.71h0l.54-.71h.47l-.78,1,.83,1.08Z"/><path class="cls-1" d="M13.79,20.53h.41v.37h-.41Zm0,.68h.41v1.51h-.41Z"/><path class="cls-1" d="M16.24,22.31c0,.18,0,.38,0,.41h-.39a1.11,1.11,0,0,1,0-.19.58.58,0,0,1-.55.23c-.41,0-.57-.25-.57-.49s.34-.5.78-.5h.33v-.06c0-.13-.06-.25-.31-.25s-.28.09-.3.2H14.8c0-.19.15-.49.72-.49s.72.3.72.55ZM15.83,22h-.32c-.28,0-.39.07-.39.21s.09.21.28.21.43-.16.43-.38Z"/><path class="cls-1" d="M18.25,22a.85.85,0,0,1-1.69,0,.85.85,0,0,1,1.69,0ZM17,22a.42.42,0,0,0,.42.47.42.42,0,0,0,.41-.47.43.43,0,0,0-.42-.48C17.12,21.49,17,21.71,17,22Z"/><path d="M30.1,11.94a12,12,0,0,0,1-4.3h1.36a14.08,14.08,0,0,1-.8,4.3ZM31,4.61a14.43,14.43,0,0,0-.64-2.08h1.37a10.24,10.24,0,0,1,.72,2.08Zm.13,2.56A10.87,10.87,0,0,0,30.4,5h1.4a12.33,12.33,0,0,1,.68,2.13Zm1.83,1V7.13h2.73V6h1.44V7.13h2.81V8.19h-1.1A4.41,4.41,0,0,0,40,10.75v.94a4,4,0,0,1-2.56-3.5h-.34v3.92H35.64V8.19h-.39a3.77,3.77,0,0,1-2.47,3.5v-.94a3.93,3.93,0,0,0,1.15-2.56ZM33,4.7V2.87h6.64V4.7H38.32V3.85H34.44V4.7Zm0,1.87V5.81a2.17,2.17,0,0,0,1.79-1.32h1.36C35.79,5.82,34.74,6.52,33,6.57Zm6.6,0a3,3,0,0,1-3.07-2.08h1.36a2.24,2.24,0,0,0,1.71,1.32Z"/><path d="M41.74,4.83v-1h.89V2.31h1.45v1.5h.85v1h-.85V9.09L44.34,9a3.68,3.68,0,0,0,.72-.3V9.77a9.25,9.25,0,0,1-3.36,1.28V9.73a7.08,7.08,0,0,0,.93-.22V4.83Zm2.85,7.37v-1A2.21,2.21,0,0,0,45.4,9.3V2.48h1.36V9.05A2.89,2.89,0,0,1,44.59,12.2Zm3-.94V2.83H49v8.43Zm2.22.9V2.48h1.4v9.68Z"/><path d="M53.34,4.27V3.17h3.87V2.31h1.92v.86H63v1.1Zm.59,6.86V5.3h3.41V4.49H59V5.3h3.49V9.47c0,1.08-.52,1.62-1.66,1.62H59.81V10h.55q.64,0,.6-.6v-3H59v5.76h-1.7V6.4H55.51v4.73Z"/><path d="M64.93,12.16v-1a3,3,0,0,0,.68-2.39V3.93H70V2.27h1.57c0,.6,0,1.15,0,1.66h1V2.53h1.28v1.4h.85V5H71.57a21.48,21.48,0,0,0,.35,3.37,10,10,0,0,0,1-2.69h1.44A9.87,9.87,0,0,1,72.3,10c.31.74.67,1.1,1.06,1.07s.43-.2.43-.68h1.06c0,1.16-.49,1.73-1.49,1.7a2.37,2.37,0,0,1-2.08-1.15,20.33,20.33,0,0,1-1.88,1.19V11.05q.76-.6,1.41-1.2l-.13-.38c0-.14-.06-.25-.08-.34A21.1,21.1,0,0,1,70,5H67.15V6.36H69.7V9.73a1.16,1.16,0,0,1-1.32,1.36h-1v-1h.43c.34,0,.49-.14.47-.51V7.38H67.15V8.53A3.46,3.46,0,0,1,64.93,12.16Z"/><path d="M76.32,6.74v-.8a2.08,2.08,0,0,0,1.1-1.45h1.37A2.94,2.94,0,0,1,76.32,6.74Zm4.89,5.37A9.82,9.82,0,0,1,79,10.79a10.78,10.78,0,0,1-2.64,1.32v-1A7.2,7.2,0,0,0,78.19,10a8.55,8.55,0,0,1-1.41-3.15h1.37A7.46,7.46,0,0,0,79,9a7.46,7.46,0,0,0,.81-2.17h1.4A8.75,8.75,0,0,1,79.68,10a4.86,4.86,0,0,0,1.53,1.06Zm-4.72-8v-1h1.7V2.36h1.62v.81h1.62v1ZM81.55,6.7a2.7,2.7,0,0,1-2.38-2.21h1.36a2.14,2.14,0,0,0,.85,1.32V5.17a4.45,4.45,0,0,0,1-2.77h1.49c-.08.43-.17.81-.25,1.15h2.64v1h-.6a9,9,0,0,1-1.19,4.86,10.8,10.8,0,0,0,1.7,1.66v1.07a9.25,9.25,0,0,1-2.43-1.75,12,12,0,0,1-2.29,1.75V11.09A11.47,11.47,0,0,0,83,9.39,8.94,8.94,0,0,1,81.85,6a.65.65,0,0,0-.3.17Zm1.66-2.13a5.24,5.24,0,0,1-.59.81h.47A13.66,13.66,0,0,0,83.72,8a10.42,10.42,0,0,0,.6-3.41Z"/><path d="M88,4.06V3h3.27V4.06h-.8V9.17c.28-.08.59-.17.93-.25V10a12.92,12.92,0,0,1-3.45.85V9.56c.34-.06.67-.1,1-.13V4.06Zm3.19,8.05v-1C93,10.58,93.85,9.56,93.79,8V6.36h1.49V8.07c0,1.44.81,2.45,2.51,3v1a5.12,5.12,0,0,1-3.23-1.83A5,5,0,0,1,91.15,12.11Zm.34-8.39V2.65h6.26V3.72H95.19a5.77,5.77,0,0,1-.21,1h2.47v5H96.09v-4H93v4H91.62v-5h1.83a8.69,8.69,0,0,0,.21-1Z"/><path d="M100.36,11.81v-9h8.09v7.41a1.39,1.39,0,0,1-1.57,1.57ZM102,3.89V5.47h4.81V3.89Zm0,2.64V8.11h4.81V6.53Zm0,4.26h4.22c.42,0,.62-.18.59-.64V9.22H102Z"/><path d="M113.75,4.61a2.39,2.39,0,0,1-.09-.38l-.13-.51h-.42a3.2,3.2,0,0,1-1.92,1V4a2.13,2.13,0,0,0,1.15-1.62h1.36l-.12.47h2.47v.89h-1.32a2.92,2.92,0,0,1,.25.89Zm4.68,0a5.12,5.12,0,0,0-.17-.85h-.51a2.1,2.1,0,0,1-.94.77V5h3.88V6.57h-1.07v1c0,.88-.37,1.3-1.19,1.27h-4.64v.56h6.13v1.19c0,.91-.4,1.35-1.28,1.32h-6.43V6.57h-.93V5h3.79V4.49h.8V4a2.06,2.06,0,0,0,1-1.66h1.4a.68.68,0,0,1,0,.21,1.52,1.52,0,0,1-.09.26h2.69v.89h-1.41a2.52,2.52,0,0,1,.26.85Zm-5.58,1.32v.6h6.26v-.6Zm.94,1.45V8h3.92c.28,0,.41-.1.38-.38v-.3Zm4.64,2.94h-4.64v.81H118c.32,0,.46-.14.43-.43Z"/><path d="M122.7,3.85v-1h3.11v1H125V6.11h.73V7.17H125V9.81l.86-.21v1a16.4,16.4,0,0,1-3.32.77V10.2l1-.09V7.17h-.8V6.11h.8V3.85Zm3.45,4V2.7h5.92V6.45a1.2,1.2,0,0,1-1.4,1.4h-.81v.9h2.3V9.81h-2.3v1h2.68v.94h-6.9v-.94h2.73v-1h-2.26V8.75h2.26v-.9Zm1.32-4.13v1h.9v-1Zm0,3.11h.9V5.76h-.9Zm3.28-3.11h-.89v1h.89Zm-.6,3.11q.65,0,.6-.6V5.76h-.89V6.83Z"/><path d="M134.3,4.32V3.21h2.94a1.37,1.37,0,0,0,.08-.26,2.51,2.51,0,0,0,.22-.64h1.74a4.15,4.15,0,0,1-.21.64,1.26,1.26,0,0,1-.09.26h5V4.32h-5.5a2.38,2.38,0,0,1-.51.89h5.07v5.41c0,1-.44,1.48-1.4,1.45h-1.2v-1H141c.31,0,.45-.16.42-.47v-.47h-4v2h-1.62V7.6c-.23.14-.57.37-1,.68a4.66,4.66,0,0,0-.56.34V7.43a8.81,8.81,0,0,0,2.6-3.11Zm3.11,2v.85h4V6.32Zm0,1.87v.9h4v-.9Z"/><path d="M146,12.16V2.7h3.37v1a7.07,7.07,0,0,1-.64,2.68,3.37,3.37,0,0,1,.72,2.18c0,1.45-.65,2.17-2,2.17V9.56c.51,0,.77-.34.77-1.11a3,3,0,0,0-.68-2,10,10,0,0,0,.51-2.73h-.77v8.44Zm3.79,0V2.74H155V6.23a1.24,1.24,0,0,1-1.45,1.45h-2.38v2.73a3.78,3.78,0,0,1,.63-.3l.39-.17v1.11A10.75,10.75,0,0,1,149.77,12.16Zm1.41-8.4V4.7h2.51V3.76Zm1.95,2.9c.4,0,.59-.17.56-.6V5.72h-2.51v.94ZM155.56,12a5.34,5.34,0,0,1-4-4h1.4a6.6,6.6,0,0,0,.47,1.28A2.61,2.61,0,0,0,154.24,8h1.28a3.19,3.19,0,0,1-1.58,2,4.15,4.15,0,0,0,1.62,1.06Z"/><path d="M157.28,7.55v-1a5.49,5.49,0,0,0,2.47-3.92h1.7A6.36,6.36,0,0,1,157.28,7.55ZM165,11.94c-.09-.31-.16-.59-.22-.85a28.44,28.44,0,0,1-5.62.47h-.93V10.32A12,12,0,0,0,160.9,6h1.87a11.67,11.67,0,0,1-2.94,4.3,43.74,43.74,0,0,0,4.6-.21,9.78,9.78,0,0,0-.51-1.19c-.11-.26-.2-.46-.25-.6h1.4a15.46,15.46,0,0,1,1.45,3.62Zm2.08-4.39a6.28,6.28,0,0,1-4.17-4.94h1.7a5.52,5.52,0,0,0,2.47,3.92Z"/><path d="M168.88,5.68V4.61h7.19V5.68ZM175.14,12V11H176c.42,0,.62-.19.59-.64V3.85h-7.32V2.78h8.94v7.67A1.35,1.35,0,0,1,176.63,12Zm-5.54-1.49v-4h5.71V9c0,1.05-.46,1.57-1.45,1.54Zm1.49-1h2.21a.45.45,0,0,0,.52-.51V7.51h-2.73Z"/><path d="M32.72,17.53c-.1-.33-.23-.77-.78-.77a.57.57,0,0,0-.61.63c0,.47.35.65.71.83s1,.37,1,1.07a1.05,1.05,0,0,1-1.17,1,2.52,2.52,0,0,1-.57-.09L31,20.1a6.84,6.84,0,0,1-.13-.88H31c.09.3.33.93,1,.93a.64.64,0,0,0,.7-.72c0-.57-.46-.76-.76-.93,0,0-.88-.29-.88-1a1,1,0,0,1,1.05-.9,2,2,0,0,1,.66.12c0,.19.05.4.09.78Z"/><path d="M34.15,18.28h2.38v-.93c0-.43-.05-.52-.53-.56v-.07h1.36v.07c-.49,0-.54.13-.54.56v2.23c0,.44,0,.52.52.56v.07H36v-.07c.53,0,.58-.12.58-.56V18.45H34.15v1.13c0,.44.05.52.54.56v.07H33.33v-.07c.48,0,.52-.12.52-.56V17.35c0-.43,0-.52-.54-.56v-.07h1.36v.07c-.47,0-.52.13-.52.56Z"/><path d="M37.64,20.14c.53,0,.57-.13.57-.56V17.39c0-.48-.05-.57-.52-.6v-.07h2.46c0,.19,0,.52.05.85l-.1,0c-.12-.57-.22-.74-.91-.74h-.53c-.15,0-.15,0-.15.16v1.3h.66c.44,0,.55,0,.63-.43h.1v1h-.1c-.09-.43-.21-.45-.63-.45h-.66v1.09c0,.53.23.53.7.53a1.12,1.12,0,0,0,.86-.22,1.59,1.59,0,0,0,.31-.55h.1c0,.21-.16.7-.2.89H37.64Z"/><path d="M40.69,20.14c.34,0,.5-.14.54-.29a4.63,4.63,0,0,0,.06-1V17.59c0-.49,0-.47-.13-.59s-.21-.17-.51-.21v-.07h.69l2.61,3h0v-1.6c0-1.09,0-1.23-.67-1.28v-.07h1.4v.07c-.33,0-.47.14-.52.3a4.21,4.21,0,0,0-.06,1v2.18h-.06l-2.6-2.93h0v1.49a6.33,6.33,0,0,0,0,1c0,.18.22.28.6.31v.07H40.69Z"/><path d="M45.27,16.58a.22.22,0,0,0,.11.12.53.53,0,0,0,.19,0h2.3l0,.06c-.87,1.08-1.74,2.15-2.59,3.27.21,0,.72,0,1.12,0,1,0,1.23-.14,1.51-.77l.1,0c0,.14-.14.62-.21.88h-3l0-.06c.85-1.09,1.73-2.17,2.6-3.3H46.34c-.85,0-.93.14-1.11.72h-.1c0-.28.06-.66.06-1Z"/><path d="M49,18.28h2.38v-.93c0-.43,0-.52-.53-.56v-.07h1.37v.07c-.5,0-.55.13-.55.56v2.23c0,.44,0,.52.53.56v.07H50.85v-.07c.53,0,.57-.12.57-.56V18.45H49v1.13c0,.44.05.52.55.56v.07H48.23v-.07c.47,0,.52-.12.52-.56V17.35c0-.43,0-.52-.54-.56v-.07h1.35v.07c-.47,0-.52.13-.52.56Z"/><path d="M52.53,20.14c.53,0,.57-.13.57-.56V17.39c0-.48,0-.57-.51-.6v-.07H55c0,.19,0,.52.05.85l-.09,0c-.12-.57-.23-.74-.91-.74h-.53c-.15,0-.16,0-.16.16v1.3h.66c.45,0,.55,0,.64-.43h.09v1H54.7c-.09-.43-.21-.45-.64-.45H53.4v1.09c0,.53.23.53.7.53a1.12,1.12,0,0,0,.86-.22,1.76,1.76,0,0,0,.32-.55h.09c0,.21-.15.7-.2.89H52.53Z"/><path d="M55.59,20.14c.33,0,.49-.14.53-.29a4.41,4.41,0,0,0,.07-1V17.59c0-.49,0-.47-.13-.59a.74.74,0,0,0-.52-.21v-.07h.7l2.6,3h0v-1.6c0-1.09,0-1.23-.67-1.28v-.07h1.4v.07c-.32,0-.47.14-.52.3a4.42,4.42,0,0,0,0,1v2.18H59l-2.6-2.93h0v1.49a5.88,5.88,0,0,0,.06,1c.05.18.22.28.59.31v.07h-1.4Z"/><path d="M64.43,19.2a8.1,8.1,0,0,1-.3.94A6.7,6.7,0,0,1,63,20.3a1.85,1.85,0,0,1-2.1-1.78,2,2,0,0,1,2.22-1.89,3.59,3.59,0,0,1,1.06.16c0,.28.08.55.11.86l-.1,0c-.15-.65-.54-.9-1.27-.9a1.49,1.49,0,0,0-1.62,1.61A1.62,1.62,0,0,0,63,20.16a1.4,1.4,0,0,0,1.38-1Z"/><path d="M65.49,18.28h2.38v-.93c0-.43-.05-.52-.53-.56v-.07H68.7v.07c-.5,0-.54.13-.54.56v2.23c0,.44,0,.52.52.56v.07H67.29v-.07c.53,0,.58-.12.58-.56V18.45H65.49v1.13c0,.44.05.52.54.56v.07H64.67v-.07c.48,0,.52-.12.52-.56V17.35c0-.43,0-.52-.54-.56v-.07H66v.07c-.47,0-.52.13-.52.56Z"/><path d="M69,20.14c.53,0,.57-.13.57-.56V17.39c0-.48,0-.57-.52-.6v-.07h2.46c0,.19,0,.52.05.85l-.1,0c-.12-.57-.22-.74-.91-.74H70c-.15,0-.15,0-.15.16v1.3h.66c.44,0,.55,0,.63-.43h.1v1h-.1c-.09-.43-.21-.45-.63-.45h-.66v1.09c0,.53.23.53.69.53a1.13,1.13,0,0,0,.87-.22,1.59,1.59,0,0,0,.31-.55h.1c0,.21-.16.7-.2.89H69Z"/><path d="M72,20.14c.34,0,.49-.14.54-.29a5.36,5.36,0,0,0,.06-1V17.59c0-.49,0-.47-.13-.59s-.21-.17-.51-.21v-.07h.69l2.61,3h0v-1.6c0-1.09,0-1.23-.66-1.28v-.07H76v.07c-.33,0-.47.14-.52.3a4.21,4.21,0,0,0-.06,1v2.18H75.4l-2.6-2.93h0v1.49a6.33,6.33,0,0,0,0,1c0,.18.22.28.6.31v.07H72Z"/><path d="M80,18.72c-.34.05-.35.12-.35.37v.5a1.3,1.3,0,0,0,0,.48,5.67,5.67,0,0,1-1.31.23,1.88,1.88,0,0,1-2.1-1.8,1.94,1.94,0,0,1,2.15-1.87,4.48,4.48,0,0,1,1.1.15c0,.16,0,.48.1.83h-.09a1.06,1.06,0,0,0-1.21-.85,1.5,1.5,0,0,0-1.65,1.65,1.63,1.63,0,0,0,1.7,1.74,2.64,2.64,0,0,0,.72-.09c.17-.06.24-.14.24-.38V19.2c0-.34,0-.43-.67-.48v-.08H80Z"/><path d="M80.17,16.72h1.25v.07c-.28,0-.39.06-.39.14a.4.4,0,0,0,.08.17c.2.31.46.67.74,1a4.39,4.39,0,0,0,.7-1.16c0-.11-.11-.15-.39-.19v-.07h1.29v.07a1,1,0,0,0-.79.48l-.74,1c.34.49.71,1,1,1.33s.41.51.82.55v.07H82.38v-.07c.23,0,.35-.07.35-.17a.27.27,0,0,0,0-.13c-.16-.25-.59-.84-.92-1.28-.34.51-.58.91-.78,1.25a.54.54,0,0,0-.06.16c0,.1.11.14.38.17v.07H80.05v-.07a.88.88,0,0,0,.65-.34,13.22,13.22,0,0,0,1-1.37c-.32-.47-.63-.92-.77-1.09-.28-.4-.32-.5-.75-.55Z"/><path d="M83.77,20.14c.49,0,.54-.12.54-.56V17.35c0-.43,0-.53-.54-.56v-.07h1.36v.07c-.48,0-.53.13-.53.56v2.23c0,.44.05.53.53.56v.07H83.77Z"/><path d="M87.72,20.14c.32-.05.44-.08.44-.22a5.39,5.39,0,0,0-.38-1.09h-1.3a5,5,0,0,0-.34,1c0,.19.15.23.47.28v.07H85.33v-.07c.39-.08.46-.13.67-.64l1.23-2.84.06,0,.38,1c.26.69.52,1.39.73,1.93s.21.47.61.54v.07H87.72Zm-.55-3c-.23.5-.45,1-.63,1.5h1.19l-.55-1.5Z"/><path d="M93.07,18.41a1.89,1.89,0,0,1-2,1.89,1.8,1.8,0,0,1-1.87-1.79,1.9,1.9,0,0,1,2-1.88A1.8,1.8,0,0,1,93.07,18.41Zm-3.44-.06a1.65,1.65,0,0,0,1.61,1.81,1.41,1.41,0,0,0,1.45-1.51c0-1.27-.71-1.88-1.62-1.88A1.42,1.42,0,0,0,89.63,18.35Z"/><path d="M94.5,20.14c.48,0,.53-.12.53-.56V17.35c0-.44,0-.53-.5-.55v-.08h1.34c.35,0,1.23,0,1.23,1a1.16,1.16,0,0,1-1.32,1.09l-.45-.12v.93c0,.43,0,.51.62.55v.07H94.5Zm.83-1.6a1.17,1.17,0,0,0,.48.08.83.83,0,0,0,.91-.9c0-.61-.35-.89-1-.89h-.28s-.06,0-.06.14Z"/><path d="M97.43,20.14c.51,0,.55-.12.55-.56V17.34c0-.45,0-.51-.52-.54v-.08h1.33c.56,0,1.17.16,1.17.88a1,1,0,0,1-.69.95,8.11,8.11,0,0,0,.5.76c.28.33.67.81,1,.88l0,.07c-.51,0-.78,0-1.63-1.4-.15-.21-.31-.21-.79-.21v.93c0,.44,0,.53.53.56v.07H97.43Zm1.2-1.6a1.06,1.06,0,0,0,.69-.17.84.84,0,0,0,.29-.69c0-.6-.39-.85-1-.85h-.3s0,0,0,.12v1.58Z"/><path d="M104.75,18.41a1.89,1.89,0,0,1-2,1.89,1.8,1.8,0,0,1-1.87-1.79,1.9,1.9,0,0,1,2-1.88A1.8,1.8,0,0,1,104.75,18.41Zm-3.44-.06a1.65,1.65,0,0,0,1.61,1.81,1.41,1.41,0,0,0,1.45-1.51c0-1.27-.72-1.88-1.62-1.88A1.42,1.42,0,0,0,101.31,18.35Z"/><path d="M105.06,21c.5-.19.67-.5.67-1.74V17.35c0-.43,0-.53-.55-.56v-.07h1.35v.07c-.46,0-.51.13-.51.56v2.17c0,1.11-.31,1.35-.93,1.61Z"/><path d="M106.73,20.14c.53,0,.57-.13.57-.56V17.39c0-.48,0-.57-.52-.6v-.07h2.46c0,.19,0,.52.05.85l-.1,0c-.12-.57-.22-.74-.91-.74h-.53c-.15,0-.15,0-.15.16v1.3h.66c.44,0,.55,0,.63-.43h.1v1h-.1c-.09-.43-.2-.45-.63-.45h-.66v1.09c0,.53.23.53.7.53a1.12,1.12,0,0,0,.86-.22,1.59,1.59,0,0,0,.31-.55h.1c0,.21-.16.7-.2.89h-2.64Z"/><path d="M113.41,19.2a8.1,8.1,0,0,1-.3.94,6.7,6.7,0,0,1-1.13.16,1.85,1.85,0,0,1-2.1-1.78,2,2,0,0,1,2.22-1.89,3.59,3.59,0,0,1,1.06.16c0,.28.08.55.11.86l-.1,0c-.15-.65-.54-.9-1.27-.9a1.49,1.49,0,0,0-1.62,1.61,1.62,1.62,0,0,0,1.65,1.78,1.4,1.4,0,0,0,1.38-1Z"/><path d="M114.38,20.14c.57,0,.6-.13.6-.55V16.85h-.35c-.73,0-.81.12-1,.71h-.09c0-.33,0-.67.07-1h.09a.23.23,0,0,0,.12.12.44.44,0,0,0,.18,0h2.27a.26.26,0,0,0,.27-.14h.09c0,.26,0,.61,0,.95l-.09,0c-.14-.63-.35-.71-.83-.71h-.5v2.74c0,.42,0,.52.62.55v.07h-1.52Z"/><path d="M118.1,16.72h.71l1.49,3,1.5-3h.81v.07c-.53.05-.58.11-.55.67l0,2c0,.58,0,.65.57.7v.07h-1.39v-.07c.5,0,.52-.12.51-.7l0-2.34h0l-1.53,3h0l-1.39-2.86h0l-.07,1.5c0,.27,0,.46,0,.61,0,.53.06.69.58.74v.07h-1.36v-.07c.35,0,.47-.13.52-.35a8,8,0,0,0,.12-1.08l.08-1c0-.15,0-.28,0-.38,0-.39-.09-.47-.52-.52Z"/><path d="M125.2,20.14c.33-.05.44-.08.44-.22a5.83,5.83,0,0,0-.37-1.09H124a5.66,5.66,0,0,0-.34,1c0,.19.16.23.47.28v.07h-1.28v-.07c.4-.08.47-.13.68-.64l1.22-2.84.07,0,.38,1c.26.69.51,1.39.73,1.93s.21.47.61.54v.07h-1.3Zm-.54-3c-.23.5-.45,1-.63,1.5h1.18l-.54-1.5Z"/><path d="M126.64,20.14c.33,0,.49-.14.54-.29a5.36,5.36,0,0,0,.06-1V17.59c0-.49,0-.47-.13-.59a.72.72,0,0,0-.51-.21v-.07h.69l2.61,3h0v-1.6c0-1.09,0-1.23-.66-1.28v-.07h1.4v.07c-.33,0-.47.14-.52.3a4.21,4.21,0,0,0-.06,1v2.18H130l-2.6-2.93h0v1.49a5.29,5.29,0,0,0,0,1c0,.18.22.28.6.31v.07h-1.41Z"/><path d="M133.11,20.14c.32-.05.44-.08.44-.22a5.39,5.39,0,0,0-.38-1.09h-1.3a5,5,0,0,0-.34,1c0,.19.15.23.47.28v.07h-1.28v-.07c.39-.08.47-.13.68-.64l1.22-2.84.07,0,.38,1c.25.69.51,1.39.72,1.93s.22.47.61.54v.07h-1.29Zm-.55-3c-.22.5-.44,1-.62,1.5h1.18l-.55-1.5Z"/><path d="M138.34,18.72c-.33.05-.35.12-.35.37v.5a1.3,1.3,0,0,0,0,.48,5.67,5.67,0,0,1-1.31.23,1.88,1.88,0,0,1-2.1-1.8,2,2,0,0,1,2.16-1.87,4.48,4.48,0,0,1,1.1.15c0,.16,0,.48.09.83h-.09a1,1,0,0,0-1.2-.85A1.5,1.5,0,0,0,135,18.42a1.63,1.63,0,0,0,1.7,1.74,2.64,2.64,0,0,0,.72-.09c.17-.06.24-.14.24-.38V19.2c0-.34,0-.43-.67-.48v-.08h1.32Z"/><path d="M138.55,20.14c.53,0,.57-.13.57-.56V17.39c0-.48,0-.57-.51-.6v-.07h2.45c0,.19,0,.52.05.85l-.09,0c-.12-.57-.23-.74-.91-.74h-.53c-.15,0-.16,0-.16.16v1.3h.66c.45,0,.55,0,.64-.43h.09v1h-.09c-.09-.43-.21-.45-.64-.45h-.66v1.09c0,.53.23.53.7.53a1.12,1.12,0,0,0,.86-.22,1.76,1.76,0,0,0,.32-.55h.09c0,.21-.15.7-.2.89h-2.64Z"/><path d="M141.75,16.72h.72l1.49,3,1.49-3h.81v.07c-.52.05-.57.11-.55.67l0,2c0,.58,0,.65.57.7v.07h-1.38v-.07c.49,0,.51-.12.5-.7l0-2.34h0l-1.53,3h-.05l-1.39-2.86h0l-.07,1.5c0,.27,0,.46,0,.61,0,.53,0,.69.58.74v.07h-1.36v-.07c.35,0,.47-.13.51-.35a8,8,0,0,0,.12-1.08l.08-1c0-.15,0-.28,0-.38,0-.39-.09-.47-.52-.52Z"/><path d="M146.55,20.14c.54,0,.57-.13.57-.56V17.39c0-.48,0-.57-.51-.6v-.07h2.45c0,.19,0,.52.06.85l-.1,0c-.12-.57-.23-.74-.91-.74h-.53c-.15,0-.16,0-.16.16v1.3h.66c.45,0,.56,0,.64-.43h.1v1h-.1c-.09-.43-.21-.45-.64-.45h-.66v1.09c0,.53.23.53.7.53a1.13,1.13,0,0,0,.87-.22,1.59,1.59,0,0,0,.31-.55h.1c-.05.21-.16.7-.21.89h-2.64Z"/><path d="M149.61,20.14c.33,0,.49-.14.54-.29a5.36,5.36,0,0,0,.06-1V17.59c0-.49,0-.47-.13-.59a.72.72,0,0,0-.51-.21v-.07h.69l2.61,3h0v-1.6c0-1.09,0-1.23-.66-1.28v-.07h1.4v.07c-.33,0-.47.14-.52.3a4.21,4.21,0,0,0-.06,1v2.18H153l-2.6-2.93h0v1.49a5.29,5.29,0,0,0,0,1c.05.18.22.28.6.31v.07h-1.41Z"/><path d="M154.56,20.14c.57,0,.61-.13.61-.55V16.85h-.35c-.74,0-.82.12-1,.71h-.09c0-.33.05-.67.06-1h.09a.27.27,0,0,0,.12.12.47.47,0,0,0,.18,0h2.28a.26.26,0,0,0,.26-.14h.1a6.58,6.58,0,0,0,0,.95l-.1,0c-.13-.63-.35-.71-.83-.71h-.5v2.74c0,.42,0,.52.63.55v.07h-1.53Z"/><path d="M161.76,19.2c-.08.29-.21.75-.29.94a6.69,6.69,0,0,1-1.14.16,1.85,1.85,0,0,1-2.1-1.78,2,2,0,0,1,2.22-1.89,3.76,3.76,0,0,1,1.07.16c0,.28.07.55.1.86l-.09,0c-.16-.65-.54-.9-1.28-.9a1.5,1.5,0,0,0-1.62,1.61,1.62,1.62,0,0,0,1.66,1.78,1.39,1.39,0,0,0,1.37-1Z"/><path d="M165.86,18.41a1.89,1.89,0,0,1-2,1.89A1.8,1.8,0,0,1,162,18.51a1.9,1.9,0,0,1,2-1.88A1.8,1.8,0,0,1,165.86,18.41Zm-3.44-.06A1.65,1.65,0,0,0,164,20.16a1.41,1.41,0,0,0,1.45-1.51c0-1.27-.71-1.88-1.62-1.88A1.42,1.42,0,0,0,162.42,18.35Z"/><path d="M166.44,20a.25.25,0,0,1,.5,0,.24.24,0,0,1-.25.26A.25.25,0,0,1,166.44,20Z"/><path d="M167.6,20.7c.23-.1.38-.25.38-.44a.37.37,0,0,0-.31-.36.07.07,0,0,1-.07-.08.21.21,0,0,1,.22-.2.51.51,0,0,1,.43.53c0,.37-.32.56-.6.66Z"/><path d="M171.36,19.34c0,.19-.17.63-.21.87H168.7v-.07c.48,0,.52-.12.52-.59v-2.2c0-.43,0-.53-.54-.56v-.07h1.4v.07c-.52,0-.57.13-.57.56v2.12c0,.59.14.61.71.61a1.09,1.09,0,0,0,.74-.2,1.94,1.94,0,0,0,.3-.54Z"/><path d="M172.29,20.14c.56,0,.6-.13.6-.55V16.85h-.35c-.74,0-.81.12-1,.71h-.09c0-.33.05-.67.06-1h.09a.25.25,0,0,0,.13.12.44.44,0,0,0,.18,0h2.27a.26.26,0,0,0,.27-.14h.09a8.41,8.41,0,0,0,.05.95l-.09,0c-.14-.63-.35-.71-.83-.71h-.51v2.74c0,.42,0,.52.63.55v.07h-1.52Z"/><path d="M174.83,20.14c.51,0,.55-.12.55-.56V17.35c0-.43,0-.53-.5-.55v-.08h1.64a2.22,2.22,0,0,1,1.57.44,1.51,1.51,0,0,1,.46,1.15c0,1.49-1.3,1.9-2.43,1.9h-1.29Zm.85-.58c0,.43.09.52.65.52a1.63,1.63,0,0,0,1.85-1.63,1.53,1.53,0,0,0-.79-1.46,3.29,3.29,0,0,0-1.17-.16h-.49s0,0,0,.1Z"/></svg>