<svg id="图层_1" data-name="图层 1" xmlns="http://www.w3.org/2000/svg" viewBox="0 0 40.95 40.95"><defs><style>.cls-1{fill:#eaedf0;}.cls-2{fill:#11274c;}.cls-3{fill:#f2953a;}</style></defs><title>未标题-1</title><rect class="cls-1" width="40.95" height="40.95" rx="20.35"/><path class="cls-2" d="M15.63,24.26H11.55a.62.62,0,0,0-.7.69v4.77a.62.62,0,0,0,.7.7h4.08a.62.62,0,0,0,.7-.7V25A.61.61,0,0,0,15.63,24.26ZM15.55,29a.62.62,0,0,1-.7.7H12.36a.62.62,0,0,1-.7-.7V25.71a.62.62,0,0,1,.7-.7h2.49a.62.62,0,0,1,.7.7Z"/><path class="cls-3" d="M18.86,22H22.7a.73.73,0,0,1,.82.82V29.6a.72.72,0,0,1-.82.82H18.86A.73.73,0,0,1,18,29.6V22.79a.73.73,0,0,1,.82-.82Z"/><path class="cls-2" d="M29.75,19.24H26.19a.94.94,0,0,0-1,.92V29.5a.94.94,0,0,0,1,.92h3.56a.94.94,0,0,0,1-.92V20.16A.94.94,0,0,0,29.75,19.24Zm-.11,9.37a.77.77,0,0,1-.77.75H27a.78.78,0,0,1-.78-.75V21.05A.78.78,0,0,1,27,20.3h1.86a.77.77,0,0,1,.77.75Z"/><path class="cls-2" d="M30.71,14.8V10.53H26.44L27.88,12l-4.8,4.81L19.3,13l-.09-.1v0a1.06,1.06,0,0,0-1.5,0l-6.54,6.57a1.08,1.08,0,0,0,0,1.51h0a1.06,1.06,0,0,0,1.49,0l5.77-5.8L22.24,19l0,0,0,0,0,0a1.05,1.05,0,0,0,1.47,0l5.56-5.59Z"/></svg>