<svg id="图层_1" data-name="图层 1" xmlns="http://www.w3.org/2000/svg" viewBox="0 0 40.95 40.95"><defs><style>.cls-1{fill:#eaedf0;}.cls-2{fill:#f2953a;}.cls-3{fill:#11274c;}</style></defs><title>未标题-1</title><rect class="cls-1" width="40.95" height="40.95" rx="20.35"/><path class="cls-2" d="M18.35,10.36H12a1.42,1.42,0,0,0-1.42,1.42v6.39A1.42,1.42,0,0,0,12,19.59h7.82V11.78A1.42,1.42,0,0,0,18.35,10.36Zm0,7.81H12V11.78h6.4Z"/><path class="cls-3" d="M30,10.77a1.46,1.46,0,0,0-1-.41H22.61a1.4,1.4,0,0,0-1.42,1.42v7.81H29a1.4,1.4,0,0,0,1.42-1.42V11.78A1.46,1.46,0,0,0,30,10.77Zm-1,7.4H22.61V11.78H29Z"/><path class="cls-3" d="M12,21a1.4,1.4,0,0,0-1,.42,1.42,1.42,0,0,0-.42,1v6.4A1.43,1.43,0,0,0,12,30.25h6.4a1.42,1.42,0,0,0,1-.42,1.4,1.4,0,0,0,.42-1V21Zm6.4,7.82H12v-6.4h6.4Z"/><path class="cls-3" d="M30,21.43A1.42,1.42,0,0,0,29,21H21.19v7.82a1.42,1.42,0,0,0,1.42,1.42H29a1.42,1.42,0,0,0,1.42-1.42v-6.4A1.45,1.45,0,0,0,30,21.43Zm-1,7.4H22.61v-6.4H29Z"/><path class="cls-3" d="M15.26,24.77l.5-.5a.71.71,0,0,1,.69-.19.7.7,0,0,1,.51.51.71.71,0,0,1-.19.69l-.5.5.5.5a.72.72,0,0,1,0,1,.73.73,0,0,1-1,0l-.5-.51-.5.51a.73.73,0,0,1-1,0,.72.72,0,0,1,0-1l.51-.5-.51-.5a.71.71,0,0,1,1-1Z"/><path class="cls-3" d="M24.38,14.26h2.85a.71.71,0,0,1,.61.36.7.7,0,0,1,0,.71.71.71,0,0,1-.61.36H24.38a.72.72,0,0,1,0-1.43Z"/><path class="cls-3" d="M24.3,26.13l2-2a.71.71,0,0,1,1,1l-2,2a.71.71,0,0,1-1-1Z"/><path class="cls-3" d="M14.44,14.26v-.71a.71.71,0,0,1,1.42,0v.71h.71a.72.72,0,0,1,0,1.43h-.71v.71a.71.71,0,0,1-1.42,0v-.71h-.71a.72.72,0,0,1,0-1.43Z"/></svg>