<svg id="图层_1" data-name="图层 1" xmlns="http://www.w3.org/2000/svg" viewBox="0 0 40.95 40.95"><defs><style>.cls-1{fill:#eaedf0;}.cls-2{fill:#11274c;}.cls-3{fill:#f2953a;}</style></defs><title>未标题-1</title><rect class="cls-1" width="40.95" height="40.95" rx="20.35"/><path class="cls-2" d="M28.09,17.76a6.25,6.25,0,0,1-.85,3,22.73,22.73,0,0,1-2.61,3.93,36.49,36.49,0,0,1-3,3.2c-.39.33-.72.4-1.11,0a33.82,33.82,0,0,1-4.11-4.65,27.87,27.87,0,0,1-1.58-2.54.63.63,0,0,1,.32-.92c.26-.13.66.07.85.46A18.18,18.18,0,0,0,19.33,25L21,26.59c.07.06.13.13.2,0a21.05,21.05,0,0,0,4.71-5.89,9.22,9.22,0,0,0,.92-2.29,5.72,5.72,0,0,0-.66-3.27,5.62,5.62,0,0,0-4.9-3.08A5.77,5.77,0,0,0,15.67,16a5.56,5.56,0,0,0-.27,1.83c0,.46-.26.79-.65.79a.74.74,0,0,1-.65-.79A7,7,0,0,1,26.72,13.7a6.19,6.19,0,0,1,1.37,4.06Zm0,0"/><path class="cls-2" d="M13,28.94h16.1c0-.06-.07-.13-.14-.2-.65-1.17-1.37-2.42-2-3.59-.13-.26-.2-.66,0-.85a.54.54,0,0,1,.39-.27.75.75,0,0,1,.65.27c.92,1.63,1.9,3.27,2.82,4.9a.7.7,0,0,1-.66,1.05h-18a.73.73,0,0,1-.66-1.18c.92-1.57,1.84-3.14,2.69-4.71a.72.72,0,0,1,.78-.39c.46.13.52.72.26,1.18-.46.85-1.89,3.33-2.16,3.79Z"/><path class="cls-3" d="M21.09,14.81a2.82,2.82,0,1,0,2.82,2.81A2.84,2.84,0,0,0,21.09,14.81Zm0,4.32a1.51,1.51,0,0,1,0-3,1.52,1.52,0,0,1,1.51,1.5A1.57,1.57,0,0,1,21.09,19.13Z"/></svg>