<svg id="图层_1" data-name="图层 1" xmlns="http://www.w3.org/2000/svg" viewBox="0 0 903.67 902.64"><defs><style>.cls-1{fill:#eaeef1;}</style></defs><title>8</title><path class="cls-1" d="M1393.86,882.21c-46.83-55.32-99.62-115.28-155.51-178.76-56.44-64.09-114.79-130.36-168-193.18-67.6-67-139.39-68-201.34-2.45C817.78,565.26,759.44,626.63,703,686c-56.79,59.73-115.5,121.49-167.4,179.74-35.88,40.82-29.15,73.67-21.93,89.6,11.34,25.06,37.11,40.05,55.46,40.05h80v271.95c0,45.73,32.59,94.69,81.13,94.69H885.45V1091.56h169.66V1362h156.26c30.14,0,81.14-24.4,81.14-115.86V995.36h58.6a58.89,58.89,0,0,0,53.34-32.55c12.37-24.17,8.74-53.89-10.59-80.6Zm0,0" transform="translate(-507.97 -459.36)"/></svg>