<svg id="图层_1" data-name="图层 1" xmlns="http://www.w3.org/2000/svg" viewBox="0 0 311.81 40.87"><defs><style>.cls-1{fill:#ce2a1f;}.cls-2{fill:#fff;}.cls-3{fill:#040000;}</style></defs><title>未标题-1</title><path class="cls-1" d="M33.33,33.35H0V0H33.33ZM.17,33.18h33V.17H.17Z"/><path class="cls-1" d="M32,32H1.37V1.39H32ZM1.54,31.83H31.78V1.56H1.54Z"/><rect class="cls-1" x="2.61" y="2.64" width="28.1" height="28.12"/><path class="cls-2" d="M15.56,14.38h-.37a5.25,5.25,0,0,0-.59-1.53,4.51,4.51,0,0,0-.94-1.12,3.61,3.61,0,0,0-1.2-.69,4,4,0,0,0-1.37-.24A3.86,3.86,0,0,0,9.92,11a3.73,3.73,0,0,0-1,.51A4,4,0,0,0,7.42,13.3a7.89,7.89,0,0,0-.62,3.19,12.58,12.58,0,0,0,.11,1.65,8,8,0,0,0,.33,1.48,5.76,5.76,0,0,0,.56,1.23,3.52,3.52,0,0,0,.81.9,3.79,3.79,0,0,0,2.4.72,5.36,5.36,0,0,0,1.16-.12,4,4,0,0,0,1.07-.4,5.63,5.63,0,0,0,1-.73,11.33,11.33,0,0,0,1.07-1.1v1.09a7.39,7.39,0,0,1-1.08,1,6,6,0,0,1-1.15.67,5.93,5.93,0,0,1-1.28.38,8.38,8.38,0,0,1-1.46.12,8.67,8.67,0,0,1-1.94-.21,6.61,6.61,0,0,1-1.7-.62,6.38,6.38,0,0,1-1.41-1,6.32,6.32,0,0,1-1.06-1.35,6.85,6.85,0,0,1-.84-3.29,6.93,6.93,0,0,1,.93-3.48A6.83,6.83,0,0,1,7,10.85a7.14,7.14,0,0,1,1.68-.68,6.93,6.93,0,0,1,1.77-.23,6.76,6.76,0,0,1,1.41.15,8.47,8.47,0,0,1,1.45.43,4.06,4.06,0,0,0,1.1.36.69.69,0,0,0,.53-.22,1.14,1.14,0,0,0,.28-.72h.37Z"/><path class="cls-2" d="M27.76,20.8A6.74,6.74,0,0,0,29,22.37a1.22,1.22,0,0,0,.42.23,1.89,1.89,0,0,0,.47.11v.36H23.66v-.36a3.5,3.5,0,0,0,.6-.09,1,1,0,0,0,.36-.14.46.46,0,0,0,.18-.19.42.42,0,0,0,.05-.22.64.64,0,0,0-.09-.3q-.07-.15-.24-.42c-.1-.17-.24-.39-.41-.65l-1.89-2.77-1.95,2.4a3.65,3.65,0,0,0-.88,1.48.74.74,0,0,0,.23.51,1.19,1.19,0,0,0,.66.34,4.41,4.41,0,0,0,.82.05v.36H16.17v-.36a3,3,0,0,0,1.33-.46,10.79,10.79,0,0,0,1.78-1.79l2.54-3.1-3.26-4.82-.63-.91c-.15-.22-.25-.35-.29-.4a1.87,1.87,0,0,0-.51-.45,2.13,2.13,0,0,0-.68-.19v-.35h6.37v.35H22.5a1.35,1.35,0,0,0-.77.17.53.53,0,0,0-.22.44.58.58,0,0,0,.09.35l.62,1L23.82,15l1.36-1.64A7.74,7.74,0,0,0,26,12.23a1.62,1.62,0,0,0,.25-.71,1,1,0,0,0-.06-.36.84.84,0,0,0-.24-.3,1.43,1.43,0,0,0-.43-.2,2.55,2.55,0,0,0-.67-.07v-.35H29.5v.35a2.51,2.51,0,0,0-.88.13,2.56,2.56,0,0,0-.74.48c-.15.14-.55.61-1.22,1.4l-2.43,2.94Z"/><path class="cls-1" d="M5.12,38.56a1.63,1.63,0,0,1-1.77,1.19,1.78,1.78,0,0,1-1.9-1.88A1.84,1.84,0,0,1,3.39,36a1.58,1.58,0,0,1,1.73,1.2H4.35a.91.91,0,0,0-1-.6,1.13,1.13,0,0,0-1.13,1.26c0,.72.38,1.32,1.13,1.32a.91.91,0,0,0,1-.6Z"/><path class="cls-1" d="M6.61,35.85v1.57a1,1,0,0,1,.9-.44c.63,0,1,.37,1,1.12v1.58H7.8v-1.5c0-.37-.11-.63-.53-.63s-.66.34-.66.85v1.28H5.89V35.85Z"/><path class="cls-1" d="M9.78,38.54a.68.68,0,0,0,.73.66.63.63,0,0,0,.62-.31h.73a1.31,1.31,0,0,1-1.37.86,1.32,1.32,0,0,1-1.43-1.38A1.34,1.34,0,0,1,10.48,37a1.3,1.3,0,0,1,1.41,1.38v.18Zm1.37-.46a.59.59,0,0,0-.67-.58.61.61,0,0,0-.69.58Z"/><path class="cls-1" d="M12.32,37.71c0-.22,0-.47,0-.66H13a3.79,3.79,0,0,1,0,.38,1,1,0,0,1,.9-.45,1,1,0,0,1,1,1.08v1.62h-.74v-1.5c0-.34-.13-.63-.54-.63s-.64.31-.64.83v1.3h-.73Z"/><path class="cls-1" d="M18.38,39.37c0,1-.39,1.5-1.49,1.5s-1.33-.63-1.38-.93h.74c.06.2.22.38.68.38s.73-.39.73-.9V39.3a.94.94,0,0,1-.91.41,1.26,1.26,0,0,1-1.26-1.32A1.34,1.34,0,0,1,16.82,37c.57,0,.78.23.84.4,0-.11,0-.27,0-.33h.7v2.32Zm-2.15-1a.71.71,0,0,0,.72.78c.46,0,.73-.28.73-.81s-.25-.79-.71-.79A.74.74,0,0,0,16.23,38.37Z"/><path class="cls-1" d="M22.88,39.68l-1-1.35h0l-1,1.35H20l1.41-1.85-1.36-1.77H21l.93,1.25h0l.94-1.24h.83l-1.37,1.73,1.44,1.89Z"/><path class="cls-1" d="M24.08,35.85h.72v.64h-.72Zm0,1.2h.72v2.63h-.72Z"/><path class="cls-1" d="M28.36,39c0,.31,0,.65,0,.71h-.69c0-.08,0-.25,0-.33a1,1,0,0,1-.95.4c-.73,0-1-.44-1-.86,0-.68.6-.87,1.37-.87h.58v-.1c0-.24-.1-.44-.54-.44s-.5.16-.54.34h-.72c0-.33.25-.84,1.25-.84s1.26.51,1.26,1Zm-.71-.48h-.57c-.47,0-.68.11-.68.37s.16.36.5.36c.53,0,.75-.27.75-.67Z"/><path class="cls-1" d="M31.87,38.36A1.47,1.47,0,1,1,30.41,37,1.36,1.36,0,0,1,31.87,38.36Zm-2.2,0a.75.75,0,0,0,.73.83.73.73,0,0,0,.73-.82.75.75,0,0,0-.74-.84A.73.73,0,0,0,29.67,38.36Z"/><path class="cls-3" d="M52.57,20.86a21.31,21.31,0,0,0,1.78-7.52h2.38a24.92,24.92,0,0,1-1.41,7.52Zm1.48-12.8a26,26,0,0,0-1.11-3.65h2.38a18,18,0,0,1,1.26,3.65Zm.23,4.46A18.68,18.68,0,0,0,53.09,8.8h2.45a23.59,23.59,0,0,1,1.19,3.72Zm3.19,1.79V12.45h4.76V10.51h2.53v1.94h4.91v1.86H67.73a7.73,7.73,0,0,0,2.09,4.46v1.64a6.89,6.89,0,0,1-4.46-6.1h-.6v6.84H62.23V14.31h-.67a6.6,6.6,0,0,1-4.31,6.1V18.77a6.92,6.92,0,0,0,2-4.46Zm.23-6.1V5H69.3v3.2H66.92V6.72H60.15V8.21Zm0,3.27V10.14a3.77,3.77,0,0,0,3.12-2.3H63.2Q62.15,11.34,57.7,11.48Zm11.52,0c-2.82-.15-4.61-1.36-5.35-3.64h2.38a3.87,3.87,0,0,0,3,2.3Z"/><path class="cls-3" d="M72.89,8.43V6.65h1.56V4H77V6.65h1.49V8.43H77v7.44l.45-.22a6.41,6.41,0,0,0,1.26-.52v1.93a15.87,15.87,0,0,1-5.87,2.23V17a15.22,15.22,0,0,0,1.63-.37V8.43Zm5,12.87V19.59a3.87,3.87,0,0,0,1.42-3.35V4.34h2.38V15.8C81.86,18.48,80.6,20.31,77.87,21.3Zm5.21-1.63V4.93h2.45V19.67ZM87,21.23V4.34H89.4V21.23Z"/><path class="cls-3" d="M93.14,7.46V5.53h6.77V4h3.35V5.53h6.84V7.46Zm1,12V9.25h5.95V7.84h3V9.25h6.1v7.29c0,1.89-.92,2.83-2.9,2.83h-1.86V17.51h1c.75,0,1.09-.35,1-1V11.18h-3.34V21.23h-3v-10H96.94v8.26Z"/><path class="cls-3" d="M113.4,21.23V19.52a5.32,5.32,0,0,0,1.19-4.17V6.87h7.65V4H125a28,28,0,0,0,0,2.9h1.71V4.41h2.23V6.87h1.48V8.8H125a35.93,35.93,0,0,0,.59,5.88A17.25,17.25,0,0,0,127.38,10h2.52a17.26,17.26,0,0,1-3.64,7.44q.81,1.93,1.86,1.86c.49.05.74-.34.74-1.19h1.86c0,2-.87,3-2.6,3a4.15,4.15,0,0,1-3.64-2c-.9.64-2,1.34-3.28,2.08V19.29c.9-.69,1.71-1.38,2.46-2.08l-.23-.67c-.05-.25-.1-.45-.14-.59a38,38,0,0,1-1-7.15h-5.06v2.31h4.46V17a2,2,0,0,1-2.3,2.38h-1.71V17.66h.74c.6.05.87-.25.82-.9V12.89h-2v2A6,6,0,0,1,113.4,21.23Z"/><path class="cls-3" d="M133.28,11.78V10.37a3.61,3.61,0,0,0,1.93-2.53h2.38A5.17,5.17,0,0,1,133.28,11.78Zm8.55,9.37a17.06,17.06,0,0,1-3.94-2.3,18.11,18.11,0,0,1-4.61,2.3V19.44a12.69,12.69,0,0,0,3.27-2,15,15,0,0,1-2.46-5.5h2.38a12.79,12.79,0,0,0,1.42,3.79,13.08,13.08,0,0,0,1.41-3.79h2.45a15,15,0,0,1-2.6,5.58,8.54,8.54,0,0,0,2.68,1.86ZM133.57,7.24V5.53h3V4.12h2.82V5.53h2.83V7.24Zm8.85,4.46a4.72,4.72,0,0,1-4.16-3.86h2.38a3.64,3.64,0,0,0,1.48,2.3V9a7.79,7.79,0,0,0,1.72-4.84h2.6q-.23,1.11-.45,2h4.61V8h-1c-.05,3.63-.74,6.45-2.08,8.49a18.31,18.31,0,0,0,3,2.9v1.86a16.07,16.07,0,0,1-4.24-3.05,20.8,20.8,0,0,1-4,3.05V19.37a19,19,0,0,0,2.68-3,15.49,15.49,0,0,1-1.94-6,1.1,1.1,0,0,0-.52.3ZM145.32,8a9.39,9.39,0,0,1-1,1.42h.82a25.09,25.09,0,0,0,1.11,4.54,18.1,18.1,0,0,0,1-6Z"/><path class="cls-3" d="M153.6,7.09V5.23h5.73V7.09h-1.41V16c.49-.15,1-.3,1.63-.45v1.94a22.63,22.63,0,0,1-6,1.49V16.69c.59-.1,1.16-.17,1.71-.22V7.09Zm5.58,14.06V19.37Q163.94,18,163.79,14v-2.9h2.6v3c0,2.53,1.42,4.29,4.39,5.28v1.78q-4-.88-5.65-3.2C164.14,19.49,162.15,20.56,159.18,21.15Zm.59-14.65V4.64H170.7V6.5h-4.46a13,13,0,0,1-.37,1.71h4.31V17h-2.37V10.07h-5.43V17H160V8.21h3.19a12.9,12.9,0,0,0,.38-1.71Z"/><path class="cls-3" d="M175.27,20.63V4.93H189.4v13a2.44,2.44,0,0,1-2.76,2.75Zm2.9-13.84V9.55h8.4V6.79Zm0,4.62v2.75h8.4V11.41Zm0,7.44h7.36c.74,0,1.09-.32,1-1.12V16.09h-8.4Z"/><path class="cls-3" d="M198.64,8.06a4.68,4.68,0,0,1-.15-.67l-.22-.89h-.74a5.53,5.53,0,0,1-3.35,1.78V6.94a3.71,3.71,0,0,0,2-2.82h2.38l-.22.81h4.31V6.5h-2.31a4.88,4.88,0,0,1,.45,1.56ZM206.82,8a7.77,7.77,0,0,0-.3-1.48h-.89A3.71,3.71,0,0,1,204,7.84v.81h6.76v2.83H208.9v1.79c0,1.53-.64,2.28-2.08,2.23h-8.1v1h10.7v2.08c.05,1.59-.69,2.35-2.23,2.31H196V11.48h-1.64V8.65H201V7.84h1.41V7a3.57,3.57,0,0,0,1.78-2.9h2.46a1.24,1.24,0,0,1-.08.37,2.9,2.9,0,0,1-.14.44h4.68V6.5h-2.45A4.39,4.39,0,0,1,209.05,8Zm-9.74,2.31v1H208v-1Zm1.64,2.53V14h6.84c.49.05.72-.17.67-.67v-.52Zm8.1,5.13h-8.1v1.42h7.36c.54,0,.79-.25.74-.75Z"/><path class="cls-3" d="M214.28,6.72V4.93h5.43V6.72h-1.34v3.94h1.27v1.86h-1.27v4.62l1.49-.38v1.79a28,28,0,0,1-5.8,1.34V17.81l1.71-.15V12.52h-1.41V10.66h1.41V6.72Zm6,7v-9h10.33v6.55a2.09,2.09,0,0,1-2.45,2.45h-1.41v1.57h4v1.86h-4v1.78h4.68v1.64h-12V18.92h4.75V17.14h-3.94V15.28h3.94V13.71Zm2.3-7.21V8.21h1.56V6.5Zm0,5.43h1.56V10.07h-1.56Zm5.73-5.43h-1.56V8.21h1.56Zm-1,5.43c.74,0,1.09-.35,1-1v-.82h-1.56v1.86Z"/><path class="cls-3" d="M234.54,7.54V5.6h5.13a2.19,2.19,0,0,0,.15-.44A5.08,5.08,0,0,0,240.19,4h3.05a7.32,7.32,0,0,1-.38,1.12,3.34,3.34,0,0,1-.14.44h8.77V7.54H241.9A4.63,4.63,0,0,1,241,9.1h8.84v9.45c.05,1.74-.77,2.58-2.45,2.53h-2.08V19.37h1c.55,0,.8-.27.75-.82v-.82H240v3.42h-2.82V13.27c-.4.25-1,.64-1.79,1.19a10.16,10.16,0,0,0-1,.59V13a15.42,15.42,0,0,0,4.53-5.43ZM240,11v1.49H247V11Zm0,3.28v1.56H247V14.31Z"/><path class="cls-3" d="M254.94,21.23V4.71h5.87V6.5a12.36,12.36,0,0,1-1.11,4.68A5.88,5.88,0,0,1,261,15q0,3.8-3.42,3.79V16.69c.89,0,1.34-.6,1.34-1.94a5.27,5.27,0,0,0-1.19-3.49,17.22,17.22,0,0,0,.89-4.76h-1.34V21.23Zm6.62,0V4.79h9.14v6.1a2.16,2.16,0,0,1-2.53,2.53H264v4.76a8.68,8.68,0,0,1,1.11-.52c.25-.1.47-.2.67-.3v1.93A18,18,0,0,1,261.56,21.23ZM264,6.57V8.21h4.39V6.57Zm3.42,5.06c.69,0,1-.3,1-1V10H264v1.64ZM271.67,21a9.33,9.33,0,0,1-7.07-7h2.46a11.08,11.08,0,0,0,.82,2.23A4.7,4.7,0,0,0,269.36,14h2.23a5.51,5.51,0,0,1-2.75,3.5,7.34,7.34,0,0,0,2.83,1.86Z"/><path class="cls-3" d="M274.67,13.19V11.41A9.57,9.57,0,0,0,279,4.56h3A11.18,11.18,0,0,1,274.67,13.19Zm13.46,7.67c-.15-.55-.28-1.05-.37-1.49a50.28,50.28,0,0,1-9.82.82H276.3V18A20.9,20.9,0,0,0,281,10.51h3.27A20.43,20.43,0,0,1,279.13,18a74.94,74.94,0,0,0,8-.37c-.15-.45-.45-1.14-.89-2.09-.2-.44-.35-.79-.45-1h2.46a27.15,27.15,0,0,1,2.52,6.33Zm3.64-7.67a11,11,0,0,1-7.29-8.63h3a9.57,9.57,0,0,0,4.31,6.85Z"/><path class="cls-3" d="M294.92,9.92V8.06h12.57V9.92ZM305.85,21V19.22h1.49c.74.05,1.09-.32,1-1.12V6.72H295.59V4.86h15.62V18.25c0,1.89-.87,2.8-2.76,2.75Zm-9.67-2.6v-7h10v4.31c.05,1.84-.79,2.73-2.53,2.68Zm2.61-1.71h3.86a.79.79,0,0,0,.9-.89V13.12h-4.76Z"/><path class="cls-3" d="M57.14,30.61c-.17-.57-.4-1.34-1.36-1.34a1,1,0,0,0-1.06,1.09c0,.82.6,1.14,1.24,1.47.43.21,1.64.63,1.64,1.85a1.82,1.82,0,0,1-2,1.77,4,4,0,0,1-1-.16,1.87,1.87,0,0,1-.42-.18,11.41,11.41,0,0,1-.24-1.55h.16c.16.53.58,1.63,1.73,1.63A1.11,1.11,0,0,0,57,33.93c0-1-.8-1.32-1.33-1.62-.09,0-1.53-.5-1.53-1.69A1.67,1.67,0,0,1,56,29a3.25,3.25,0,0,1,1.15.21c0,.33.09.69.16,1.36Z"/><path class="cls-3" d="M59.63,31.92h4.16V30.3c0-.76-.08-.9-.93-1v-.14h2.39v.14c-.87.07-1,.21-1,1v3.89c0,.77.08.92.92,1v.13H62.78v-.13c.93-.06,1-.21,1-1v-2H59.63v2c0,.77.09.92,1,1v.13H58.22v-.13c.82-.06.9-.21.9-1V30.3c0-.76-.08-.9-.94-1v-.14h2.36v.14c-.82.07-.91.21-.91,1Z"/><path class="cls-3" d="M65.73,35.17c.93-.05,1-.22,1-1V30.37c0-.84-.07-1-.89-1v-.14h4.28c0,.34,0,.92.09,1.49l-.17,0c-.2-1-.39-1.28-1.58-1.28h-.93c-.26,0-.27,0-.27.27V32H68.4c.78,0,1-.09,1.11-.75h.17v1.82h-.17c-.16-.75-.36-.79-1.11-.79H67.25v1.9c0,.92.4.92,1.22.92a2,2,0,0,0,1.5-.37,3.09,3.09,0,0,0,.56-1h.16c-.09.36-.27,1.23-.35,1.56H65.73Z"/><path class="cls-3" d="M71.07,35.17c.58,0,.85-.24.93-.51a8.43,8.43,0,0,0,.11-1.82V30.72c0-.87,0-.82-.22-1s-.38-.3-.9-.36v-.14H72.2l4.55,5.16h0V31.56c0-1.9,0-2.15-1.16-2.23v-.14h2.44v.14c-.57.05-.82.23-.91.51a8.32,8.32,0,0,0-.09,1.72v3.81H77l-4.54-5.12h0v2.59a10.39,10.39,0,0,0,.09,1.8c.08.3.38.48,1,.53v.13H71.07Z"/><path class="cls-3" d="M79.06,29a.37.37,0,0,0,.19.2,1.06,1.06,0,0,0,.34,0h4l.06.12c-1.5,1.87-3,3.76-4.51,5.7.36,0,1.24.06,1.94.06,1.83,0,2.16-.25,2.65-1.35l.17,0c-.07.25-.25,1.08-.36,1.55H78.37l0-.11c1.48-1.91,3-3.79,4.54-5.76H80.93c-1.48,0-1.62.23-1.94,1.24h-.18c0-.49.11-1.15.12-1.72Z"/><path class="cls-3" d="M85.64,31.92H89.8V30.3c0-.76-.08-.9-.93-1v-.14h2.39v.14c-.87.07-1,.21-1,1v3.89c0,.77.08.92.92,1v.13H88.8v-.13c.92-.06,1-.21,1-1v-2H85.64v2c0,.77.09.92,1,1v.13H84.23v-.13c.82-.06.9-.21.9-1V30.3c0-.76-.08-.9-.94-1v-.14h2.36v.14c-.82.07-.91.21-.91,1Z"/><path class="cls-3" d="M91.74,35.17c.93-.05,1-.22,1-1V30.37c0-.84-.08-1-.9-1v-.14h4.28c0,.34,0,.92.09,1.49l-.17,0c-.2-1-.39-1.28-1.58-1.28h-.93c-.26,0-.27,0-.27.27V32h1.15c.78,0,1-.09,1.11-.75h.17v1.82h-.17c-.16-.75-.36-.79-1.11-.79H93.26v1.9c0,.92.4.92,1.22.92A2,2,0,0,0,96,34.71a3.31,3.31,0,0,0,.55-1h.16c-.08.36-.27,1.23-.35,1.56H91.74Z"/><path class="cls-3" d="M97.08,35.17c.58,0,.86-.24.93-.51a8.43,8.43,0,0,0,.11-1.82V30.72c0-.87-.05-.82-.22-1s-.38-.3-.9-.36v-.14h1.21l4.55,5.16h0V31.56c0-1.9,0-2.15-1.16-2.23v-.14h2.44v.14c-.57.05-.82.23-.9.51a7.43,7.43,0,0,0-.1,1.72v3.81H103l-4.54-5.12h0v2.59a10.39,10.39,0,0,0,.09,1.8c.09.3.38.48,1,.53v.13H97.08Z"/><path class="cls-3" d="M112.51,33.53a15.53,15.53,0,0,1-.51,1.64,12,12,0,0,1-2,.28c-2.58,0-3.68-1.64-3.67-3.12,0-1.95,1.65-3.29,3.88-3.29a6.87,6.87,0,0,1,1.86.28c.08.49.13.95.19,1.51l-.17,0c-.28-1.13-1-1.57-2.23-1.57a2.6,2.6,0,0,0-2.82,2.8,2.83,2.83,0,0,0,2.88,3.12,2.43,2.43,0,0,0,2.4-1.73Z"/><path class="cls-3" d="M114.36,31.92h4.16V30.3c0-.76-.08-.9-.93-1v-.14H120v.14c-.87.07-1,.21-1,1v3.89c0,.77.08.92.92,1v.13h-2.44v-.13c.93-.06,1-.21,1-1v-2h-4.16v2c0,.77.09.92,1,1v.13h-2.38v-.13c.83-.06.91-.21.91-1V30.3c0-.76-.08-.9-.94-1v-.14h2.36v.14c-.82.07-.91.21-.91,1Z"/><path class="cls-3" d="M120.46,35.17c.93-.05,1-.22,1-1V30.37c0-.84-.07-1-.89-1v-.14h4.28c0,.34,0,.92.09,1.49l-.17,0c-.2-1-.39-1.28-1.58-1.28h-.93c-.26,0-.27,0-.27.27V32h1.15c.78,0,1-.09,1.11-.75h.17v1.82h-.17c-.16-.75-.36-.79-1.11-.79H122v1.9c0,.92.4.92,1.22.92a2,2,0,0,0,1.5-.37,3.09,3.09,0,0,0,.56-1h.16c-.09.36-.27,1.23-.35,1.56h-4.61Z"/><path class="cls-3" d="M125.8,35.17c.58,0,.85-.24.93-.51a8.43,8.43,0,0,0,.11-1.82V30.72c0-.87,0-.82-.23-1s-.37-.3-.89-.36v-.14h1.21l4.55,5.16h0V31.56c0-1.9,0-2.15-1.16-2.23v-.14h2.44v.14c-.57.05-.82.23-.91.51a8.32,8.32,0,0,0-.09,1.72v3.81h-.11l-4.54-5.12h0v2.59a10.39,10.39,0,0,0,.09,1.8c.08.3.38.48,1,.53v.13H125.8Z"/><path class="cls-3" d="M139.68,32.7c-.58.08-.61.21-.61.64v.88a2.44,2.44,0,0,0,.09.83,10.1,10.1,0,0,1-2.28.4c-2.15,0-3.67-1.29-3.67-3.15C133.21,30.17,135,29,137,29a7.28,7.28,0,0,1,1.92.27c0,.28.08.84.16,1.44l-.15,0a1.85,1.85,0,0,0-2.11-1.49,2.62,2.62,0,0,0-2.89,2.89,2.85,2.85,0,0,0,3,3,4.24,4.24,0,0,0,1.26-.15c.29-.1.41-.24.41-.67v-.85c0-.59-.05-.76-1.17-.83v-.14h2.3Z"/><path class="cls-3" d="M140,29.19h2.19v.14c-.5.05-.68.1-.68.23a.63.63,0,0,0,.13.29c.35.56.81,1.18,1.29,1.83a7.71,7.71,0,0,0,1.24-2c0-.19-.2-.26-.68-.32v-.14h2.24v.14a1.66,1.66,0,0,0-1.37.83c-.14.17-.46.59-1.3,1.73.6.85,1.24,1.74,1.67,2.32s.72.9,1.42,1v.13h-2.28v-.13c.39,0,.61-.11.61-.29a.53.53,0,0,0-.08-.23c-.27-.43-1-1.48-1.59-2.24-.6.89-1,1.59-1.37,2.19a.7.7,0,0,0-.1.27c0,.18.19.26.65.3v.13H139.8v-.13a1.62,1.62,0,0,0,1.14-.59c.09-.08.53-.66,1.72-2.39-.56-.82-1.1-1.61-1.34-1.91-.49-.7-.56-.86-1.32-1Z"/><path class="cls-3" d="M146.29,35.17c.86,0,.94-.21.94-1V30.3c0-.76-.08-.92-.94-1v-.14h2.39v.14c-.85.05-.94.21-.94,1v3.89c0,.77.09.94.94,1v.13h-2.39Z"/><path class="cls-3" d="M153.19,35.17c.56-.08.77-.14.77-.38a9.88,9.88,0,0,0-.66-1.91H151a9.15,9.15,0,0,0-.59,1.81c0,.33.27.39.82.48v.13H149v-.13c.69-.14.82-.23,1.18-1.11l2.14-5,.12-.05.66,1.81c.45,1.22.89,2.44,1.27,3.38.29.72.37.83,1.06.94v.13h-2.25Zm-1-5.22c-.39.87-.78,1.8-1.09,2.62h2.07l-1-2.62Z"/><path class="cls-3" d="M162.54,32.16a3.3,3.3,0,0,1-3.43,3.29,3.14,3.14,0,0,1-3.26-3.13A3.31,3.31,0,0,1,159.32,29,3.14,3.14,0,0,1,162.54,32.16Zm-6-.12a2.89,2.89,0,0,0,2.8,3.17,2.46,2.46,0,0,0,2.53-2.64c0-2.22-1.25-3.29-2.83-3.29A2.48,2.48,0,0,0,156.54,32Z"/><path class="cls-3" d="M165,35.17c.84,0,.92-.21.92-1V30.3c0-.78,0-.92-.87-1v-.15h2.34c.62,0,2.15.08,2.15,1.7a2,2,0,0,1-2.3,1.91l-.79-.21v1.62c0,.76.07.9,1.08,1v.13H165Zm1.45-2.8a2,2,0,0,0,.84.15,1.45,1.45,0,0,0,1.6-1.58c0-1.07-.63-1.55-1.84-1.55a2.92,2.92,0,0,0-.5,0c-.07,0-.1,0-.1.24Z"/><path class="cls-3" d="M170.16,35.17c.87,0,1-.21,1-1V30.27c0-.77-.08-.87-.9-.93v-.15h2.32c1,0,2,.29,2,1.54a1.72,1.72,0,0,1-1.2,1.66,11.87,11.87,0,0,0,.87,1.34c.48.58,1.17,1.42,1.67,1.53l0,.13c-.9,0-1.37,0-2.86-2.46-.24-.35-.54-.36-1.38-.36v1.62c0,.77.08.94.93,1v.13h-2.41Zm2.08-2.8a1.82,1.82,0,0,0,1.21-.29,1.43,1.43,0,0,0,.51-1.2c0-1-.68-1.49-1.71-1.49l-.52,0s-.09,0-.09.21v2.75Z"/><path class="cls-3" d="M182.94,32.16a3.31,3.31,0,0,1-3.44,3.29,3.15,3.15,0,0,1-3.26-3.13A3.32,3.32,0,0,1,179.72,29,3.14,3.14,0,0,1,182.94,32.16Zm-6-.12a2.89,2.89,0,0,0,2.81,3.17,2.46,2.46,0,0,0,2.53-2.64c0-2.22-1.25-3.29-2.84-3.29A2.48,2.48,0,0,0,176.93,32Z"/><path class="cls-3" d="M183.48,36.75c.87-.34,1.16-.88,1.16-3V30.3c0-.76-.06-.92-1-1v-.14H186v.14c-.81.05-.88.21-.88,1v3.78c0,2-.56,2.37-1.63,2.82Z"/><path class="cls-3" d="M186.39,35.17c.92-.05,1-.22,1-1V30.37c0-.84-.08-1-.89-1v-.14h4.28c0,.34,0,.92.09,1.49l-.17,0c-.21-1-.39-1.28-1.58-1.28h-.93c-.27,0-.28,0-.28.27V32h1.16c.77,0,1-.09,1.11-.75h.17v1.82h-.17c-.16-.75-.37-.79-1.11-.79H187.9v1.9c0,.92.41.92,1.23.92a2,2,0,0,0,1.5-.37,2.92,2.92,0,0,0,.55-1h.17c-.09.36-.27,1.23-.35,1.56h-4.61Z"/><path class="cls-3" d="M198.05,33.53c-.14.51-.37,1.31-.51,1.64a12.21,12.21,0,0,1-2,.28c-2.58,0-3.69-1.64-3.68-3.12,0-1.95,1.66-3.29,3.88-3.29a6.71,6.71,0,0,1,1.86.28c.08.49.13.95.19,1.51l-.17,0c-.27-1.13-.94-1.57-2.22-1.57a2.61,2.61,0,0,0-2.83,2.8,2.83,2.83,0,0,0,2.89,3.12,2.43,2.43,0,0,0,2.4-1.73Z"/><path class="cls-3" d="M199.75,35.17c1-.05,1.06-.22,1.06-1V29.43h-.62c-1.29,0-1.41.21-1.71,1.23h-.16c.06-.57.09-1.16.11-1.7h.16a.45.45,0,0,0,.22.2.9.9,0,0,0,.31,0h4a.44.44,0,0,0,.46-.23h.17a14.61,14.61,0,0,0,.09,1.66l-.17,0c-.23-1.1-.61-1.23-1.45-1.23h-.87v4.78c0,.74.07.91,1.09,1v.13h-2.66Z"/><path class="cls-3" d="M206.24,29.19h1.25l2.6,5.17,2.61-5.17h1.42v.14c-.91.09-1,.18-1,1.16l.06,3.46c0,1,.07,1.14,1,1.22v.13h-2.41v-.13c.86-.07.89-.2.88-1.22l0-4.1h0L210,35.19h-.09l-2.43-5h0l-.12,2.63c0,.46,0,.79,0,1.06,0,.93.1,1.2,1,1.29v.13h-2.37v-.13c.61-.05.82-.22.89-.61a13.36,13.36,0,0,0,.22-1.88l.14-1.79c0-.26,0-.48,0-.65,0-.7-.17-.82-.92-.91Z"/><path class="cls-3" d="M218.65,35.17c.56-.08.77-.14.77-.38a9.88,9.88,0,0,0-.66-1.91h-2.28a9.85,9.85,0,0,0-.59,1.81c0,.33.27.39.82.48v.13h-2.23v-.13c.69-.14.81-.23,1.18-1.11l2.13-5,.12-.05.66,1.81c.46,1.22.9,2.44,1.27,3.38.3.72.38.83,1.07.94v.13h-2.26Zm-1-5.22c-.4.87-.78,1.8-1.1,2.62h2.07L217.72,30Z"/><path class="cls-3" d="M221.16,35.17c.58,0,.86-.24.94-.51a8.43,8.43,0,0,0,.11-1.82V30.72c0-.87-.05-.82-.23-1s-.37-.3-.9-.36v-.14h1.22l4.55,5.16h0V31.56c0-1.9,0-2.15-1.17-2.23v-.14h2.45v.14c-.58.05-.82.23-.91.51a7.43,7.43,0,0,0-.1,1.72v3.81H227l-4.54-5.12h0v2.59a10.39,10.39,0,0,0,.09,1.8c.09.3.39.48,1.05.53v.13h-2.46Z"/><path class="cls-3" d="M232.46,35.17c.56-.08.77-.14.77-.38a9.88,9.88,0,0,0-.66-1.91h-2.28a9.15,9.15,0,0,0-.59,1.81c0,.33.27.39.82.48v.13h-2.24v-.13c.69-.14.82-.23,1.19-1.11l2.13-5,.12-.05.66,1.81c.45,1.22.9,2.44,1.27,3.38.3.72.38.83,1.06.94v.13h-2.25Zm-1-5.22c-.39.87-.77,1.8-1.09,2.62h2.07l-1-2.62Z"/><path class="cls-3" d="M241.59,32.7c-.58.08-.61.21-.61.64v.88a2.44,2.44,0,0,0,.09.83,10.19,10.19,0,0,1-2.29.4c-2.14,0-3.66-1.29-3.66-3.15,0-2.13,1.82-3.26,3.76-3.26a7.14,7.14,0,0,1,1.92.27c0,.28.08.84.17,1.44l-.16,0a1.84,1.84,0,0,0-2.11-1.49,2.61,2.61,0,0,0-2.88,2.89,2.84,2.84,0,0,0,3,3,4.2,4.2,0,0,0,1.26-.15c.3-.1.42-.24.42-.67v-.85c0-.59-.05-.76-1.18-.83v-.14h2.31Z"/><path class="cls-3" d="M242,35.17c.93-.05,1-.22,1-1V30.37c0-.84-.08-1-.9-1v-.14h4.29c0,.34.05.92.09,1.49l-.17,0c-.21-1-.4-1.28-1.59-1.28h-.92c-.27,0-.28,0-.28.27V32h1.15c.78,0,1-.09,1.12-.75h.16v1.82h-.16c-.16-.75-.37-.79-1.12-.79h-1.15v1.9c0,.92.4.92,1.22.92a2,2,0,0,0,1.51-.37,3.1,3.1,0,0,0,.55-1h.17c-.09.36-.28,1.23-.36,1.56H242Z"/><path class="cls-3" d="M247.55,29.19h1.25l2.6,5.17L254,29.19h1.42v.14c-.92.09-1,.18-1,1.16l.07,3.46c0,1,.07,1.14,1,1.22v.13h-2.42v-.13c.87-.07.9-.2.89-1.22l0-4.1h0l-2.67,5.34h-.09l-2.42-5h0l-.13,2.63c0,.46,0,.79,0,1.06,0,.93.1,1.2,1,1.29v.13h-2.38v-.13c.61-.05.82-.22.9-.61a13.36,13.36,0,0,0,.22-1.88l.13-1.79c0-.26,0-.48,0-.65,0-.7-.16-.82-.91-.91Z"/><path class="cls-3" d="M255.94,35.17c.92-.05,1-.22,1-1V30.37c0-.84-.08-1-.89-1v-.14h4.28c0,.34.05.92.09,1.49l-.17,0c-.2-1-.39-1.28-1.58-1.28h-.93c-.26,0-.27,0-.27.27V32h1.15c.78,0,1-.09,1.11-.75h.17v1.82h-.17c-.16-.75-.36-.79-1.11-.79h-1.15v1.9c0,.92.4.92,1.22.92a2,2,0,0,0,1.5-.37,3.09,3.09,0,0,0,.56-1h.16c-.09.36-.27,1.23-.35,1.56h-4.61Z"/><path class="cls-3" d="M261.28,35.17c.58,0,.85-.24.93-.51a8.43,8.43,0,0,0,.11-1.82V30.72c0-.87-.05-.82-.23-1s-.37-.3-.89-.36v-.14h1.21L267,34.35h0V31.56c0-1.9,0-2.15-1.16-2.23v-.14h2.44v.14c-.57.05-.82.23-.91.51a8.32,8.32,0,0,0-.09,1.72v3.81h-.11l-4.54-5.12h0v2.59a10.39,10.39,0,0,0,.09,1.8c.08.3.38.48,1,.53v.13h-2.45Z"/><path class="cls-3" d="M269.92,35.17c1-.05,1.06-.22,1.06-1V29.43h-.61c-1.29,0-1.42.21-1.72,1.23h-.15c.06-.57.08-1.16.1-1.7h.16a.45.45,0,0,0,.22.2.93.93,0,0,0,.31,0h4a.47.47,0,0,0,.47-.23h.16a14.61,14.61,0,0,0,.09,1.66l-.17,0c-.23-1.1-.61-1.23-1.44-1.23h-.88v4.78c0,.74.07.91,1.09,1v.13h-2.66Z"/><path class="cls-3" d="M282.49,33.53a15.53,15.53,0,0,1-.51,1.64,12,12,0,0,1-2,.28c-2.58,0-3.68-1.64-3.67-3.12,0-1.95,1.65-3.29,3.88-3.29a6.87,6.87,0,0,1,1.86.28c.08.49.13.95.18,1.51l-.16,0c-.28-1.13-.95-1.57-2.23-1.57a2.6,2.6,0,0,0-2.82,2.8,2.83,2.83,0,0,0,2.88,3.12,2.43,2.43,0,0,0,2.4-1.73Z"/><path class="cls-3" d="M289.66,32.16a3.3,3.3,0,0,1-3.44,3.29A3.15,3.15,0,0,1,283,32.32,3.32,3.32,0,0,1,286.44,29,3.14,3.14,0,0,1,289.66,32.16Zm-6-.12a2.89,2.89,0,0,0,2.81,3.17A2.46,2.46,0,0,0,289,32.57c0-2.22-1.25-3.29-2.83-3.29A2.49,2.49,0,0,0,283.65,32Z"/><path class="cls-3" d="M290.67,35a.44.44,0,1,1,.87,0,.44.44,0,1,1-.87,0Z"/><path class="cls-3" d="M292.68,36.14c.42-.16.67-.42.67-.76a.62.62,0,0,0-.54-.62.14.14,0,0,1-.13-.15.37.37,0,0,1,.4-.35.89.89,0,0,1,.75.93c0,.65-.56,1-1.05,1.15Z"/><path class="cls-3" d="M299.25,33.78c-.07.32-.28,1.09-.35,1.52h-4.28v-.13c.83,0,.9-.21.9-1V30.3c0-.76-.07-.92-.94-1v-.14H297v.14c-.9.05-1,.21-1,1V34c0,1,.24,1.07,1.24,1.07a1.86,1.86,0,0,0,1.29-.35,4,4,0,0,0,.52-.94Z"/><path class="cls-3" d="M300.88,35.17c1-.05,1.05-.22,1.05-1V29.43h-.61c-1.29,0-1.42.21-1.71,1.23h-.16c.06-.57.09-1.16.11-1.7h.16a.44.44,0,0,0,.21.2,1,1,0,0,0,.32,0h4a.46.46,0,0,0,.46-.23h.17a14.61,14.61,0,0,0,.09,1.66l-.17,0c-.24-1.1-.61-1.23-1.45-1.23h-.88v4.78c0,.74.07.91,1.1,1v.13h-2.66Z"/><path class="cls-3" d="M305.31,35.17c.9,0,1-.21,1-1V30.3c0-.76-.08-.92-.89-1v-.15h2.87A3.9,3.9,0,0,1,311,30a2.63,2.63,0,0,1,.8,2c0,2.59-2.26,3.32-4.23,3.32h-2.27Zm1.49-1c0,.75.16.91,1.14.91,2.41,0,3.22-1.55,3.22-2.85a2.66,2.66,0,0,0-1.38-2.55,5.7,5.7,0,0,0-2-.28c-.5,0-.77,0-.86,0s-.09,0-.09.18Z"/></svg>