<svg id="图层_1" data-name="图层 1" xmlns="http://www.w3.org/2000/svg" viewBox="0 0 425.2 55.73"><defs><style>.cls-1{fill:#ce2a1f;}.cls-2{fill:#fff;}.cls-3{fill:#040000;}</style></defs><title>未标题-1</title><path class="cls-1" d="M45.45,45.47H0V0H45.45ZM.23,45.24h45V.23H.23Z"/><path class="cls-1" d="M43.58,43.63H1.87V1.9H43.58ZM2.1,43.4H43.34V2.13H2.1Z"/><rect class="cls-1" x="3.56" y="3.59" width="38.32" height="38.34"/><path class="cls-2" d="M21.22,19.61h-.5a7.41,7.41,0,0,0-.82-2.09A6.17,6.17,0,0,0,18.63,16,5.26,5.26,0,0,0,17,15.05a5.55,5.55,0,0,0-1.86-.32,5.39,5.39,0,0,0-1.6.24,5.56,5.56,0,0,0-1.43.69,5.64,5.64,0,0,0-1.16,1.08,5.75,5.75,0,0,0-.83,1.39,10.75,10.75,0,0,0-.83,4.35,16.52,16.52,0,0,0,.14,2.26,11.43,11.43,0,0,0,.45,2,7.61,7.61,0,0,0,.77,1.68,4.66,4.66,0,0,0,1.1,1.23,5.15,5.15,0,0,0,3.28,1,7.29,7.29,0,0,0,1.58-.17,5.53,5.53,0,0,0,1.46-.55,7.25,7.25,0,0,0,1.41-1,15,15,0,0,0,1.46-1.5v1.49a10.4,10.4,0,0,1-1.47,1.31,8.06,8.06,0,0,1-1.57.92,8.26,8.26,0,0,1-1.75.52,11.27,11.27,0,0,1-2,.17,12,12,0,0,1-2.65-.29,9.09,9.09,0,0,1-2.31-.85,8.14,8.14,0,0,1-1.92-1.36,7.62,7.62,0,0,1-1.44-1.84A9.23,9.23,0,0,1,4.67,23,9.47,9.47,0,0,1,9.5,14.79a10.16,10.16,0,0,1,2.29-.92,9.34,9.34,0,0,1,2.42-.31,9.1,9.1,0,0,1,1.93.2,11.78,11.78,0,0,1,2,.59,5.85,5.85,0,0,0,1.51.49,1,1,0,0,0,.73-.31,1.61,1.61,0,0,0,.38-1h.5Z"/><path class="cls-2" d="M37.86,28.37a9.13,9.13,0,0,0,1.7,2.14,2,2,0,0,0,.57.31,2.3,2.3,0,0,0,.64.15v.48H32.26V31a4.55,4.55,0,0,0,.82-.13,1.49,1.49,0,0,0,.5-.19.63.63,0,0,0,.24-.25.66.66,0,0,0,.07-.3.83.83,0,0,0-.12-.41q-.1-.21-.33-.57l-.57-.89L30.3,24.44l-2.65,3.29a4.86,4.86,0,0,0-1.2,2,1,1,0,0,0,.3.71,1.79,1.79,0,0,0,.91.47,6.23,6.23,0,0,0,1.11.06v.48H22.05V31a4.12,4.12,0,0,0,1.81-.63,14,14,0,0,0,2.43-2.45l3.47-4.22L25.31,17.1l-.86-1.25-.39-.54a2.34,2.34,0,0,0-.7-.6,2.57,2.57,0,0,0-.93-.27V14h8.69v.47h-.44a1.71,1.71,0,0,0-1,.24.7.7,0,0,0-.31.6.8.8,0,0,0,.12.47l.85,1.35,2.18,3.3,1.85-2.23a9.89,9.89,0,0,0,1.07-1.49,2.23,2.23,0,0,0,.34-1,1.28,1.28,0,0,0-.09-.48.89.89,0,0,0-.32-.41,1.9,1.9,0,0,0-.59-.27,3.37,3.37,0,0,0-.91-.1V14h6.4v.47a3.45,3.45,0,0,0-1.2.18,3.34,3.34,0,0,0-1,.66c-.2.19-.76.82-1.67,1.9l-3.31,4Z"/><path class="cls-1" d="M7,52.58a2.24,2.24,0,0,1-2.42,1.63A2.43,2.43,0,0,1,2,51.64a2.5,2.5,0,0,1,2.64-2.57A2.17,2.17,0,0,1,7,50.7h-1a1.27,1.27,0,0,0-1.33-.82,1.55,1.55,0,0,0-1.54,1.73A1.59,1.59,0,0,0,4.62,53.4a1.23,1.23,0,0,0,1.31-.82Z"/><path class="cls-1" d="M9,48.89V51a1.32,1.32,0,0,1,1.23-.61c.87,0,1.39.51,1.39,1.53V54.1h-1v-2c0-.51-.16-.87-.72-.87s-.9.47-.9,1.17V54.1H8V48.89Z"/><path class="cls-1" d="M13.34,52.55a.93.93,0,0,0,1,.9.86.86,0,0,0,.85-.42h1a1.78,1.78,0,0,1-1.86,1.17,1.8,1.8,0,0,1-2-1.88,1.83,1.83,0,0,1,2-1.9,1.78,1.78,0,0,1,1.91,1.89v.24Zm1.87-.63a.82.82,0,0,0-.92-.79.84.84,0,0,0-.94.79Z"/><path class="cls-1" d="M16.8,51.42c0-.3,0-.64,0-.9h1c0,.11,0,.35,0,.53A1.29,1.29,0,0,1,19,50.42a1.32,1.32,0,0,1,1.4,1.48v2.2h-1v-2c0-.46-.18-.86-.74-.86s-.88.43-.88,1.14V54.1h-1Z"/><path class="cls-1" d="M25.06,53.68c0,1.31-.53,2-2,2s-1.81-.86-1.88-1.26h1c.09.27.31.52.93.52.84,0,1-.54,1-1.24v-.16a1.28,1.28,0,0,1-1.24.56,1.72,1.72,0,0,1-1.73-1.79,1.84,1.84,0,0,1,1.82-1.94c.77,0,1,.32,1.15.55,0-.14,0-.36,0-.45h1c0,.35,0,.7,0,1Zm-2.93-1.36a1,1,0,0,0,1,1.06c.63,0,1-.38,1-1.1s-.34-1.08-1-1.08A1,1,0,0,0,22.13,52.32Z"/><path class="cls-1" d="M31.2,54.1l-1.37-1.83h0L28.49,54.1H27.33l1.92-2.52-1.86-2.41h1.23l1.27,1.7h0l1.28-1.7H32.3l-1.86,2.37,2,2.56Z"/><path class="cls-1" d="M32.83,48.89h1v.87h-1Zm0,1.63h1V54.1h-1Z"/><path class="cls-1" d="M38.67,53.14c0,.43,0,.88,0,1h-.93a3.12,3.12,0,0,1-.05-.44,1.38,1.38,0,0,1-1.3.54c-1,0-1.38-.6-1.38-1.16,0-.94.83-1.2,1.88-1.2h.78v-.13c0-.32-.14-.6-.74-.6s-.67.22-.73.46h-1c0-.45.34-1.15,1.7-1.15s1.72.7,1.72,1.3Zm-1-.65h-.77c-.65,0-.93.16-.93.51s.22.49.68.49c.73,0,1-.37,1-.91Z"/><path class="cls-1" d="M43.46,52.31a2,2,0,0,1-4,0,2,2,0,0,1,4,0Zm-3,0a1,1,0,0,0,1,1.13,1,1,0,0,0,1-1.11,1,1,0,0,0-1-1.15A1,1,0,0,0,40.45,52.31Z"/><path class="cls-3" d="M71.68,28.44a28.92,28.92,0,0,0,2.43-10.25h3.25a33.69,33.69,0,0,1-1.93,10.25Zm2-17.45a35.67,35.67,0,0,0-1.52-5h3.24a23.65,23.65,0,0,1,1.73,5Zm.3,6.09A24.85,24.85,0,0,0,72.39,12h3.35a31.66,31.66,0,0,1,1.62,5.08Zm4.36,2.43V17h6.49V14.34h3.45V17H95v2.53H92.37A10.49,10.49,0,0,0,95.2,25.6v2.23a9.43,9.43,0,0,1-6.08-8.32h-.81v9.34H84.86V19.51H84q-.51,6.19-5.88,8.32V25.6a9.46,9.46,0,0,0,2.74-6.09Zm.31-8.32V6.83H94.49v4.36H91.25v-2H82v2Zm0,4.47V13.83a5.12,5.12,0,0,0,4.26-3.15h3.24Q84.76,15.45,78.68,15.66Zm15.71,0c-3.85-.21-6.28-1.86-7.3-5h3.25a5.29,5.29,0,0,0,4,3.15Z"/><path class="cls-3" d="M99.4,11.5V9.06h2.13V5.51H105V9.06h2V11.5h-2V21.64l.61-.3a8.75,8.75,0,0,0,1.73-.71v2.64a21.86,21.86,0,0,1-8,3V23.16a18,18,0,0,0,2.23-.5V11.5Zm6.79,17.55V26.72a5.31,5.31,0,0,0,1.93-4.57V5.92h3.24V21.54Q111.76,27,106.19,29.05Zm7.1-2.23V6.73h3.35V26.82ZM118.56,29v-23h3.35V29Z"/><path class="cls-3" d="M127,10.18V7.54h9.23v-2h4.56v2h9.33v2.64Zm1.42,16.33V12.61h8.12V10.68h4v1.93h8.32v10q.09,3.86-4,3.85h-2.53V23.87h1.31c1,0,1.49-.47,1.42-1.42v-7.2H140.6V29h-4V15.25h-4.36V26.51Z"/><path class="cls-3" d="M154.63,29V26.61c1.22-1.21,1.76-3.11,1.62-5.68V9.37H166.7v-4h3.75a37.31,37.31,0,0,0,0,4h2.33V6h3V9.37h2V12h-7.4a51.75,51.75,0,0,0,.81,8,23.18,23.18,0,0,0,2.43-6.39h3.45c-1.15,4.39-2.8,7.78-5,10.14.75,1.76,1.59,2.61,2.54,2.54.67.07,1-.47,1-1.62h2.54c0,2.77-1.19,4.12-3.55,4a5.67,5.67,0,0,1-5-2.74q-1.83,1.32-4.46,2.85V26.31c1.21-.95,2.33-1.89,3.34-2.84-.06-.2-.17-.51-.3-.91s-.14-.61-.2-.82A51.76,51.76,0,0,1,166.8,12h-6.9v3.15H166v8c.06,2.17-1,3.25-3.15,3.25h-2.33V24.08h1c.81.07,1.18-.34,1.11-1.22V17.58H159.9v2.74Q160.22,26.52,154.63,29Z"/><path class="cls-3" d="M181.74,16.06V14.13a4.89,4.89,0,0,0,2.64-3.45h3.24A7,7,0,0,1,181.74,16.06ZM193.4,28.85A23.63,23.63,0,0,1,188,25.7a24.81,24.81,0,0,1-6.29,3.15V26.51a17.1,17.1,0,0,0,4.46-2.74,20.26,20.26,0,0,1-3.34-7.51h3.24A17.55,17.55,0,0,0,188,21.44,17.55,17.55,0,0,0,190,16.26h3.35a20.36,20.36,0,0,1-3.55,7.61,11.39,11.39,0,0,0,3.65,2.54Zm-11.25-19V7.54h4V5.61h3.85V7.54h3.86V9.87ZM194.21,16a6.47,6.47,0,0,1-5.68-5.28h3.25a5,5,0,0,0,2,3.15V12.31a10.67,10.67,0,0,0,2.33-6.6h3.55c-.21,1-.41,1.93-.61,2.74h6.29v2.44H204q-.1,7.41-2.84,11.56a24.71,24.71,0,0,0,4,4V29a21.85,21.85,0,0,1-5.78-4.16A28.76,28.76,0,0,1,193.91,29V26.41a25.47,25.47,0,0,0,3.65-4.06,21,21,0,0,1-2.64-8.11,1.49,1.49,0,0,0-.71.4Zm4-5.07a13.67,13.67,0,0,1-1.42,1.93h1.11A32.39,32.39,0,0,0,199.38,19a24.81,24.81,0,0,0,1.42-8.11Z"/><path class="cls-3" d="M209.46,9.67V7.13h7.81V9.67h-1.93V21.85c.67-.21,1.42-.41,2.23-.61v2.63a30,30,0,0,1-8.21,2V22.76c.81-.14,1.58-.24,2.33-.31V9.67Zm7.6,19.18V26.41q6.49-1.83,6.29-7.3v-4h3.55v4.06q-.1,5.17,6,7.2v2.44q-5.48-1.23-7.71-4.37Q223.15,27.63,217.06,28.85Zm.81-20V6.32h14.91V8.86H226.7a18.27,18.27,0,0,1-.51,2.33h5.88v12h-3.24V13.73h-7.41v9.43h-3.24v-12h4.36a18.27,18.27,0,0,0,.51-2.33Z"/><path class="cls-3" d="M239,28.14V6.73h19.27V24.38c0,2.5-1.25,3.76-3.76,3.76Zm4-18.88V13h11.45V9.26Zm0,6.29v3.76h11.45V15.55Zm0,10.15h10c1,.07,1.49-.44,1.42-1.52V22H243Z"/><path class="cls-3" d="M270.88,11a6.32,6.32,0,0,1-.21-.91c-.13-.54-.23-.95-.3-1.22h-1a7.53,7.53,0,0,1-4.57,2.43V9.47a5.07,5.07,0,0,0,2.74-3.86h3.24l-.3,1.12h5.88V8.86h-3.14a6.76,6.76,0,0,1,.61,2.13Zm11.15-.1a10.44,10.44,0,0,0-.41-2h-1.21a5,5,0,0,1-2.23,1.82V11.8h9.22v3.86h-2.53v2.43q.11,3.15-2.84,3H271v1.32h14.6v2.84c.07,2.17-.95,3.22-3,3.15H267.23V15.66H265V11.8h9V10.68H276V9.57a4.86,4.86,0,0,0,2.43-4h3.35a1.62,1.62,0,0,1-.11.51,2.7,2.7,0,0,1-.2.61h6.39V8.86h-3.35a5.84,5.84,0,0,1,.61,2ZM268.75,14v1.42h14.9V14ZM271,17.48v1.63h9.33c.67.06,1-.24.91-.92v-.71Zm11,7H271v1.93h10c.74,0,1.08-.34,1-1Z"/><path class="cls-3" d="M292.21,9.16V6.73h7.4V9.16h-1.83v5.38h1.73v2.54h-1.73v6.29l2-.51v2.43a37.68,37.68,0,0,1-7.91,1.83V24.28l2.33-.2v-7h-1.92V14.54h1.92V9.16Zm8.21,9.54V6.42h14.09v8.93c.07,2.3-1.05,3.42-3.34,3.35h-1.93v2.13h5.48v2.54h-5.48V25.8h6.39V28H299.2V25.8h6.49V23.37h-5.37V20.83h5.37V18.7Zm3.14-9.84v2.33h2.13V8.86Zm0,7.4h2.13V13.73h-2.13Zm7.81-7.4h-2.13v2.33h2.13ZM310,16.26c1,0,1.49-.47,1.42-1.42V13.73h-2.13v2.53Z"/><path class="cls-3" d="M319.82,10.28V7.64h7A3.08,3.08,0,0,0,327,7a5.79,5.79,0,0,0,.51-1.52h4.16A9.83,9.83,0,0,1,331.18,7a3.93,3.93,0,0,1-.2.61h12v2.64H329.86a6.08,6.08,0,0,1-1.22,2.13h12.07V25.29q.1,3.56-3.35,3.45h-2.83V26.41h1.31c.75,0,1.08-.37,1-1.12V24.18h-9.64v4.67h-3.85V18.09q-.81.51-2.43,1.62a11.33,11.33,0,0,0-1.32.82V17.69a20.93,20.93,0,0,0,6.18-7.41Zm7.4,4.77v2h9.64v-2Zm0,4.46v2.13h9.64V19.51Z"/><path class="cls-3" d="M347.64,29V6.42h8V8.86a16.69,16.69,0,0,1-1.52,6.39,8,8,0,0,1,1.72,5.17q0,5.17-4.66,5.18V22.76q1.83.1,1.83-2.64a7.22,7.22,0,0,0-1.63-4.77,23.12,23.12,0,0,0,1.22-6.49h-1.82V29Zm9,0V6.53h12.47v8.31c.06,2.37-1.08,3.52-3.45,3.45H360v6.5a10.78,10.78,0,0,1,1.52-.71c.34-.14.64-.27.92-.41v2.64A24.46,24.46,0,0,1,356.67,29ZM360,9v2.23h6V9Zm4.67,6.9c.94.07,1.38-.41,1.31-1.42v-.81h-6v2.23Zm5.78,12.78q-7.71-2.13-9.64-9.53h3.35a15.33,15.33,0,0,0,1.11,3,6.35,6.35,0,0,0,2-3h3a7.47,7.47,0,0,1-3.75,4.76,9.73,9.73,0,0,0,3.86,2.54Z"/><path class="cls-3" d="M374.55,18V15.55a13.06,13.06,0,0,0,5.88-9.33h4.06A15.24,15.24,0,0,1,374.55,18ZM392.9,28.44c-.2-.75-.37-1.42-.51-2A68.56,68.56,0,0,1,379,27.53h-2.23v-3a28.82,28.82,0,0,0,6.39-10.24h4.46a27.81,27.81,0,0,1-7,10.24,102.51,102.51,0,0,0,10.95-.5,29.1,29.1,0,0,0-1.21-2.84c-.27-.61-.48-1.08-.61-1.42h3.34a36.93,36.93,0,0,1,3.45,8.62Zm5-10.45a15,15,0,0,1-9.94-11.77H392a13,13,0,0,0,5.88,9.33Z"/><path class="cls-3" d="M402.16,13.53V11H419.3v2.54Zm14.91,15.11V26.21h2c1,.07,1.48-.44,1.42-1.52V9.16H403.08V6.63h21.29V24.89q.11,3.86-3.75,3.75Zm-13.18-3.55V15.55h13.59v5.89q.09,3.75-3.45,3.65Zm3.55-2.33h5.27a1.08,1.08,0,0,0,1.22-1.22V17.89h-6.49Z"/><path class="cls-3" d="M77.92,41.74c-.23-.78-.55-1.83-1.85-1.83a1.36,1.36,0,0,0-1.45,1.49c0,1.12.82,1.56,1.69,2,.59.29,2.24.87,2.24,2.53,0,1.38-1.07,2.38-2.77,2.41a6,6,0,0,1-1.35-.21,2.37,2.37,0,0,1-.58-.26,14.84,14.84,0,0,1-.32-2.1h.21c.22.72.8,2.22,2.37,2.22a1.52,1.52,0,0,0,1.66-1.73c0-1.34-1.1-1.8-1.81-2.19-.12-.07-2.1-.7-2.1-2.32a2.26,2.26,0,0,1,2.5-2.14,4.5,4.5,0,0,1,1.57.28c.06.45.12.94.22,1.85Z"/><path class="cls-3" d="M81.32,43.53H87V41.32c0-1-.11-1.23-1.27-1.33v-.18H89V40c-1.18.1-1.29.3-1.29,1.33v5.3c0,1.05.11,1.25,1.25,1.33v.19H85.62V48c1.26-.08,1.37-.28,1.37-1.33V44H81.32v2.67c0,1.05.12,1.25,1.3,1.33v.19H79.38V48c1.13-.08,1.24-.28,1.24-1.33v-5.3c0-1-.11-1.23-1.29-1.33v-.18h3.22V40c-1.11.1-1.23.3-1.23,1.33Z"/><path class="cls-3" d="M89.63,48c1.26-.06,1.36-.29,1.36-1.32V41.42c0-1.15-.11-1.37-1.22-1.43v-.18h5.84c0,.46.07,1.25.12,2l-.23,0c-.28-1.36-.54-1.75-2.16-1.75H92.08c-.37,0-.38,0-.38.37v3.11h1.57c1.06,0,1.32-.13,1.52-1H95v2.47h-.23c-.22-1-.5-1.07-1.52-1.07H91.7v2.59c0,1.25.55,1.25,1.67,1.25a2.71,2.71,0,0,0,2-.5A4.29,4.29,0,0,0,96.17,46h.23c-.12.49-.38,1.68-.48,2.13H89.63Z"/><path class="cls-3" d="M96.91,48c.79-.05,1.17-.32,1.28-.69a12.36,12.36,0,0,0,.14-2.48V41.9c0-1.19-.06-1.12-.3-1.42A1.69,1.69,0,0,0,96.8,40v-.18h1.66l6.2,7h0V43c0-2.6,0-2.94-1.58-3v-.18h3.33V40c-.78.07-1.12.32-1.24.71a10.26,10.26,0,0,0-.13,2.34v5.19h-.15l-6.19-7h0v3.54a14.32,14.32,0,0,0,.12,2.45c.12.42.52.66,1.42.72v.19H96.91Z"/><path class="cls-3" d="M107.82,39.49a.5.5,0,0,0,.25.28,1.47,1.47,0,0,0,.46,0H114l.1.16c-2.06,2.55-4.14,5.12-6.15,7.77.48,0,1.69.08,2.64.08,2.49,0,2.94-.33,3.62-1.84l.22,0c-.09.35-.33,1.48-.49,2.12h-7.07l0-.15c2-2.61,4.12-5.18,6.19-7.86h-2.65c-2,0-2.2.32-2.64,1.7h-.24c.06-.68.14-1.57.16-2.35Z"/><path class="cls-3" d="M116.79,43.53h5.66V41.32c0-1-.1-1.23-1.26-1.33v-.18h3.25V40c-1.18.1-1.29.3-1.29,1.33v5.3c0,1.05.11,1.25,1.25,1.33v.19h-3.32V48c1.27-.08,1.37-.28,1.37-1.33V44h-5.66v2.67c0,1.05.12,1.25,1.3,1.33v.19h-3.24V48c1.13-.08,1.24-.28,1.24-1.33v-5.3c0-1-.11-1.23-1.29-1.33v-.18H118V40c-1.11.1-1.23.3-1.23,1.33Z"/><path class="cls-3" d="M125.1,48c1.26-.06,1.36-.29,1.36-1.32V41.42c0-1.15-.11-1.37-1.22-1.43v-.18h5.84c0,.46.06,1.25.12,2l-.23,0c-.28-1.36-.54-1.75-2.16-1.75h-1.27c-.36,0-.37,0-.37.37v3.11h1.57c1.06,0,1.32-.13,1.52-1h.23v2.47h-.23c-.22-1-.5-1.07-1.52-1.07h-1.57v2.59c0,1.25.55,1.25,1.66,1.25a2.72,2.72,0,0,0,2.06-.5,4.29,4.29,0,0,0,.75-1.32h.23c-.12.49-.38,1.68-.48,2.13H125.1Z"/><path class="cls-3" d="M132.38,48c.79-.05,1.17-.32,1.28-.69a12.36,12.36,0,0,0,.14-2.48V41.9c0-1.19-.06-1.12-.31-1.42a1.64,1.64,0,0,0-1.22-.49v-.18h1.65l6.21,7h0V43c0-2.6,0-2.94-1.59-3v-.18h3.34V40c-.78.07-1.12.32-1.24.71a10.26,10.26,0,0,0-.13,2.34v5.19h-.15l-6.19-7h0v3.54a14.32,14.32,0,0,0,.12,2.45c.12.42.52.66,1.42.72v.19h-3.34Z"/><path class="cls-3" d="M153.42,45.72a20.54,20.54,0,0,1-.69,2.25,17.69,17.69,0,0,1-2.7.37c-3.52,0-5-2.24-5-4.25,0-2.66,2.25-4.48,5.29-4.48a9.54,9.54,0,0,1,2.54.37c.1.66.17,1.3.25,2.06l-.23,0c-.37-1.54-1.29-2.14-3-2.14A3.56,3.56,0,0,0,146,43.76c0,2.58,1.56,4.26,3.94,4.26,1.87,0,2.63-1,3.28-2.37Z"/><path class="cls-3" d="M156,43.53h5.67V41.32c0-1-.11-1.23-1.27-1.33v-.18h3.25V40c-1.18.1-1.28.3-1.28,1.33v5.3c0,1.05.1,1.25,1.24,1.33v.19h-3.31V48c1.26-.08,1.37-.28,1.37-1.33V44H156v2.67c0,1.05.12,1.25,1.3,1.33v.19H154V48c1.12-.08,1.23-.28,1.23-1.33v-5.3c0-1-.11-1.23-1.29-1.33v-.18h3.23V40c-1.12.1-1.24.3-1.24,1.33Z"/><path class="cls-3" d="M164.26,48c1.27-.06,1.36-.29,1.36-1.32V41.42c0-1.15-.11-1.37-1.22-1.43v-.18h5.84c0,.46.07,1.25.12,2l-.23,0c-.28-1.36-.54-1.75-2.16-1.75h-1.26c-.37,0-.38,0-.38.37v3.11h1.57c1.06,0,1.32-.13,1.52-1h.23v2.47h-.23c-.21-1-.5-1.07-1.52-1.07h-1.57v2.59c0,1.25.55,1.25,1.67,1.25a2.7,2.7,0,0,0,2.05-.5A4.1,4.1,0,0,0,170.8,46H171c-.12.49-.37,1.68-.48,2.13h-6.29Z"/><path class="cls-3" d="M171.54,48c.79-.05,1.17-.32,1.28-.69a11.35,11.35,0,0,0,.15-2.48V41.9c0-1.19-.07-1.12-.31-1.42a1.67,1.67,0,0,0-1.23-.49v-.18h1.66l6.2,7h0V43c0-2.6,0-2.94-1.58-3v-.18h3.33V40c-.78.07-1.12.32-1.24.71a10.26,10.26,0,0,0-.13,2.34v5.19h-.15l-6.19-7h0v3.54a15.53,15.53,0,0,0,.12,2.45c.12.42.53.66,1.43.72v.19h-3.35Z"/><path class="cls-3" d="M190.48,44.58c-.79.12-.83.3-.83.88v1.2a3.24,3.24,0,0,0,.12,1.13,13.15,13.15,0,0,1-3.12.55c-2.93,0-5-1.76-5-4.29,0-2.91,2.48-4.44,5.13-4.44a9.62,9.62,0,0,1,2.61.36c0,.38.11,1.14.23,2l-.21,0c-.45-1.67-1.49-2-2.88-2a3.56,3.56,0,0,0-3.93,3.94,3.88,3.88,0,0,0,4,4.14,5.57,5.57,0,0,0,1.72-.22c.4-.13.56-.32.56-.9V45.73c0-.81-.06-1-1.59-1.15V44.4h3.14Z"/><path class="cls-3" d="M190.91,39.81h3V40c-.67.07-.93.14-.93.32a.86.86,0,0,0,.19.4c.47.76,1.1,1.6,1.76,2.49a10.65,10.65,0,0,0,1.68-2.77c0-.25-.27-.36-.93-.44v-.18h3.06V40a2.26,2.26,0,0,0-1.86,1.13c-.19.24-.63.82-1.77,2.37.81,1.16,1.69,2.37,2.26,3.16A2.41,2.41,0,0,0,199.29,48v.17h-3.1V48c.53-.07.83-.16.83-.4a.68.68,0,0,0-.11-.32c-.37-.59-1.4-2-2.17-3-.82,1.21-1.39,2.17-1.87,3a1,1,0,0,0-.13.37c0,.24.25.35.88.4v.19h-3V48a2.13,2.13,0,0,0,1.54-.8,33.25,33.25,0,0,0,2.35-3.26c-.76-1.12-1.5-2.19-1.82-2.59-.67-1-.77-1.19-1.8-1.31Z"/><path class="cls-3" d="M199.49,48c1.17-.05,1.28-.28,1.28-1.33v-5.3c0-1-.11-1.26-1.28-1.33v-.18h3.25V40c-1.15.07-1.28.3-1.28,1.33v5.3c0,1.05.13,1.28,1.28,1.33v.19h-3.25Z"/><path class="cls-3" d="M208.89,48c.77-.1,1.05-.18,1.05-.5a12.52,12.52,0,0,0-.9-2.61h-3.1a12.24,12.24,0,0,0-.81,2.46c0,.45.36.53,1.12.65v.19H203.2V48c.94-.18,1.11-.3,1.61-1.5l2.91-6.78.16-.06.9,2.46c.62,1.66,1.23,3.33,1.74,4.6.4,1,.51,1.14,1.45,1.28v.19h-3.08Zm-1.3-7.11c-.54,1.19-1.06,2.45-1.49,3.57h2.82l-1.3-3.57Z"/><path class="cls-3" d="M221.65,43.85A4.51,4.51,0,0,1,217,48.34a4.29,4.29,0,0,1-4.44-4.26,4.51,4.51,0,0,1,4.74-4.47A4.28,4.28,0,0,1,221.65,43.85Zm-8.19-.16c0,2.6,1.65,4.33,3.83,4.33a3.36,3.36,0,0,0,3.45-3.61c0-3-1.71-4.48-3.87-4.48C215.08,39.94,213.46,41.12,213.46,43.69Z"/><path class="cls-3" d="M225,48c1.16-.05,1.27-.28,1.27-1.33v-5.3c0-1.06,0-1.26-1.19-1.31v-.2h3.19c.84,0,2.93.1,2.93,2.31a2.75,2.75,0,0,1-3.13,2.61L227,44.44v2.21c0,1,.1,1.22,1.47,1.3v.19H225Zm2-3.8a2.89,2.89,0,0,0,1.14.2,2,2,0,0,0,2.18-2.16c0-1.45-.85-2.12-2.5-2.12a3.55,3.55,0,0,0-.68,0c-.1,0-.14,0-.14.33Z"/><path class="cls-3" d="M232,48c1.2-.05,1.3-.28,1.3-1.33V41.28c0-1.05-.1-1.19-1.23-1.27v-.2h3.17c1.33,0,2.78.4,2.78,2.1a2.35,2.35,0,0,1-1.64,2.26A18.39,18.39,0,0,0,237.6,46c.65.78,1.59,1.93,2.27,2.09l0,.17c-1.22,0-1.86-.07-3.89-3.36-.34-.48-.74-.49-1.88-.49v2.21c0,1.05.11,1.28,1.26,1.33v.19H232Zm2.85-3.8a2.53,2.53,0,0,0,1.64-.4,2,2,0,0,0,.7-1.64c0-1.43-.93-2-2.33-2-.36,0-.59,0-.71,0s-.12,0-.12.29v3.76Z"/><path class="cls-3" d="M249.46,43.85a4.5,4.5,0,0,1-4.68,4.49,4.29,4.29,0,0,1-4.45-4.26,4.52,4.52,0,0,1,4.74-4.47A4.28,4.28,0,0,1,249.46,43.85Zm-8.19-.16c0,2.6,1.65,4.33,3.83,4.33a3.36,3.36,0,0,0,3.45-3.61c0-3-1.71-4.48-3.87-4.48C242.9,39.94,241.27,41.12,241.27,43.69Z"/><path class="cls-3" d="M250.2,50.11c1.18-.45,1.59-1.2,1.59-4.15V41.32c0-1-.08-1.26-1.32-1.33v-.18h3.22V40c-1.1.07-1.2.3-1.2,1.33v5.15c0,2.67-.76,3.24-2.22,3.85Z"/><path class="cls-3" d="M254.16,48c1.27-.06,1.36-.29,1.36-1.32V41.42c0-1.15-.11-1.37-1.22-1.43v-.18h5.84c0,.46.07,1.25.12,2l-.23,0c-.28-1.36-.53-1.75-2.16-1.75h-1.26c-.36,0-.38,0-.38.37v3.11h1.57c1.06,0,1.32-.13,1.52-1h.23v2.47h-.23c-.21-1-.5-1.07-1.52-1.07h-1.57v2.59c0,1.25.55,1.25,1.67,1.25a2.7,2.7,0,0,0,2.05-.5A4.1,4.1,0,0,0,260.7,46h.23c-.12.49-.37,1.68-.48,2.13h-6.29Z"/><path class="cls-3" d="M270.07,45.72a22.79,22.79,0,0,1-.7,2.25,17.69,17.69,0,0,1-2.7.37c-3.52,0-5-2.24-5-4.25,0-2.66,2.25-4.48,5.29-4.48a9.54,9.54,0,0,1,2.54.37c.11.66.17,1.3.25,2.06l-.23,0c-.37-1.54-1.28-2.14-3-2.14a3.55,3.55,0,0,0-3.85,3.82c0,2.58,1.55,4.26,3.93,4.26,1.87,0,2.63-1,3.28-2.37Z"/><path class="cls-3" d="M272.39,48c1.34-.06,1.44-.29,1.44-1.3V40.13H273c-1.76,0-1.93.29-2.33,1.69h-.22c.08-.79.12-1.59.15-2.33h.21a.6.6,0,0,0,.3.28,1.3,1.3,0,0,0,.43,0h5.41a.62.62,0,0,0,.63-.32h.23a18.75,18.75,0,0,0,.12,2.26l-.23.06c-.32-1.51-.83-1.69-2-1.69h-1.2v6.52c0,1,.1,1.24,1.49,1.3v.19h-3.62Z"/><path class="cls-3" d="M281.24,39.81h1.7l3.55,7,3.56-7H292V40c-1.25.12-1.37.26-1.31,1.59l.09,4.72c0,1.37.1,1.55,1.36,1.65v.19h-3.29V48c1.18-.09,1.22-.26,1.21-1.65L290,40.71h-.05L286.29,48h-.12l-3.31-6.83h0l-.18,3.6c0,.62-.05,1.08-.05,1.44,0,1.27.13,1.63,1.38,1.75v.19h-3.23V48c.83-.06,1.11-.29,1.22-.82a18.92,18.92,0,0,0,.29-2.57l.19-2.44c0-.36,0-.65,0-.89,0-.94-.23-1.12-1.25-1.24Z"/><path class="cls-3" d="M298.16,48c.77-.1,1-.18,1-.5a12.52,12.52,0,0,0-.9-2.61h-3.1a12.24,12.24,0,0,0-.81,2.46c0,.45.36.53,1.12.65v.19h-3V48c.94-.18,1.11-.3,1.61-1.5L297,39.67l.16-.06.9,2.46c.62,1.66,1.23,3.33,1.74,4.6.4,1,.51,1.14,1.45,1.28v.19h-3.08Zm-1.3-7.11c-.54,1.19-1.06,2.45-1.49,3.57h2.82l-1.3-3.57Z"/><path class="cls-3" d="M301.59,48c.79-.05,1.16-.32,1.27-.69a11.35,11.35,0,0,0,.15-2.48V41.9c0-1.19-.07-1.12-.31-1.42a1.66,1.66,0,0,0-1.22-.49v-.18h1.65l6.21,7h0V43c0-2.6,0-2.94-1.59-3v-.18h3.33V40c-.78.07-1.11.32-1.23.71a9.5,9.5,0,0,0-.14,2.34v5.19h-.15l-6.19-7h0v3.54a13.29,13.29,0,0,0,.12,2.45c.12.42.52.66,1.42.72v.19h-3.34Z"/><path class="cls-3" d="M317,48c.77-.1,1.05-.18,1.05-.5a12.52,12.52,0,0,0-.9-2.61H314a12.24,12.24,0,0,0-.81,2.46c0,.45.36.53,1.11.65v.19h-3V48c.94-.18,1.11-.3,1.61-1.5l2.91-6.78.16-.06.9,2.46c.62,1.66,1.23,3.33,1.74,4.6.4,1,.51,1.14,1.45,1.28v.19H317Zm-1.3-7.11c-.54,1.19-1.06,2.45-1.49,3.57H317l-1.31-3.57Z"/><path class="cls-3" d="M329.44,44.58c-.79.12-.83.3-.83.88v1.2a3.24,3.24,0,0,0,.12,1.13,13.06,13.06,0,0,1-3.12.55c-2.93,0-5-1.76-5-4.29,0-2.91,2.48-4.44,5.13-4.44a9.78,9.78,0,0,1,2.62.36c0,.38.1,1.14.22,2l-.21,0c-.44-1.67-1.49-2-2.87-2a3.57,3.57,0,0,0-3.94,3.94,3.88,3.88,0,0,0,4,4.14,5.57,5.57,0,0,0,1.72-.22c.4-.13.57-.32.57-.9V45.73c0-.81-.07-1-1.6-1.15V44.4h3.14Z"/><path class="cls-3" d="M330,48c1.26-.06,1.36-.29,1.36-1.32V41.42c0-1.15-.11-1.37-1.23-1.43v-.18h5.85c0,.46.06,1.25.12,2l-.23,0c-.28-1.36-.54-1.75-2.16-1.75h-1.27c-.36,0-.37,0-.37.37v3.11h1.57c1.06,0,1.32-.13,1.52-1h.23v2.47h-.23c-.22-1-.5-1.07-1.52-1.07H332v2.59c0,1.25.55,1.25,1.66,1.25a2.72,2.72,0,0,0,2.06-.5,4.29,4.29,0,0,0,.75-1.32h.23c-.12.49-.38,1.68-.48,2.13H330Z"/><path class="cls-3" d="M337.57,39.81h1.7l3.55,7,3.56-7h1.93V40c-1.25.12-1.37.26-1.32,1.59l.1,4.72c0,1.37.09,1.55,1.35,1.65v.19h-3.29V48c1.19-.09,1.23-.26,1.21-1.65l-.05-5.59h-.06L342.62,48h-.13l-3.3-6.83h0l-.17,3.6c0,.62-.05,1.08-.05,1.44,0,1.27.13,1.63,1.38,1.75v.19h-3.24V48c.83-.06,1.12-.29,1.22-.82a16.84,16.84,0,0,0,.3-2.57l.19-2.44c0-.36,0-.65,0-.89,0-.94-.22-1.12-1.24-1.24Z"/><path class="cls-3" d="M349,48c1.26-.06,1.35-.29,1.35-1.32V41.42c0-1.15-.1-1.37-1.22-1.43v-.18H355c0,.46.07,1.25.13,2l-.23,0c-.29-1.36-.54-1.75-2.17-1.75h-1.26c-.36,0-.37,0-.37.37v3.11h1.57c1.06,0,1.31-.13,1.51-1h.23v2.47h-.23c-.21-1-.49-1.07-1.51-1.07h-1.57v2.59c0,1.25.55,1.25,1.66,1.25a2.72,2.72,0,0,0,2.06-.5,4.29,4.29,0,0,0,.75-1.32h.23c-.12.49-.38,1.68-.49,2.13H349Z"/><path class="cls-3" d="M356.29,48c.79-.05,1.17-.32,1.27-.69a11.35,11.35,0,0,0,.15-2.48V41.9c0-1.19-.07-1.12-.31-1.42a1.66,1.66,0,0,0-1.22-.49v-.18h1.65l6.21,7h0V43c0-2.6,0-2.94-1.59-3v-.18h3.33V40c-.78.07-1.11.32-1.23.71a10.05,10.05,0,0,0-.14,2.34v5.19h-.15l-6.19-7h0v3.54a13.29,13.29,0,0,0,.12,2.45c.12.42.52.66,1.42.72v.19h-3.34Z"/><path class="cls-3" d="M368.08,48c1.34-.06,1.44-.29,1.44-1.3V40.13h-.84c-1.76,0-1.93.29-2.33,1.69h-.22c.08-.79.12-1.59.15-2.33h.21a.6.6,0,0,0,.3.28,1.3,1.3,0,0,0,.43,0h5.41a.62.62,0,0,0,.63-.32h.23a18.75,18.75,0,0,0,.12,2.26l-.23.06c-.32-1.51-.83-1.69-2-1.69h-1.2v6.52c0,1,.1,1.24,1.49,1.3v.19h-3.62Z"/><path class="cls-3" d="M385.22,45.72a22.79,22.79,0,0,1-.7,2.25,17.69,17.69,0,0,1-2.7.37c-3.52,0-5-2.24-5-4.25,0-2.66,2.25-4.48,5.29-4.48a9.54,9.54,0,0,1,2.54.37c.11.66.17,1.3.25,2.06l-.23,0c-.37-1.54-1.28-2.14-3-2.14a3.55,3.55,0,0,0-3.85,3.82c0,2.58,1.55,4.26,3.93,4.26,1.87,0,2.63-1,3.28-2.37Z"/><path class="cls-3" d="M395,43.85a4.5,4.5,0,0,1-4.68,4.49,4.29,4.29,0,0,1-4.45-4.26,4.52,4.52,0,0,1,4.74-4.47A4.28,4.28,0,0,1,395,43.85Zm-8.19-.16c0,2.6,1.65,4.33,3.83,4.33a3.36,3.36,0,0,0,3.45-3.61c0-3-1.71-4.48-3.87-4.48C388.43,39.94,386.8,41.12,386.8,43.69Z"/><path class="cls-3" d="M396.36,47.69a.6.6,0,1,1,1.2,0,.6.6,0,1,1-1.2,0Z"/><path class="cls-3" d="M399.12,49.28c.56-.22.91-.57.91-1a.89.89,0,0,0-.74-.86.18.18,0,0,1-.17-.2.51.51,0,0,1,.53-.48,1.21,1.21,0,0,1,1,1.28c0,.88-.76,1.33-1.42,1.56Z"/><path class="cls-3" d="M408.07,46.06c-.09.44-.39,1.49-.48,2.08h-5.84V48c1.14-.05,1.23-.28,1.23-1.4V41.32c0-1-.09-1.26-1.29-1.33v-.18H405V40c-1.22.07-1.34.3-1.34,1.33v5c0,1.41.32,1.45,1.69,1.45a2.54,2.54,0,0,0,1.76-.48,4.9,4.9,0,0,0,.7-1.28Z"/><path class="cls-3" d="M410.29,48c1.34-.06,1.44-.29,1.44-1.3V40.13h-.84c-1.76,0-1.93.29-2.33,1.69h-.22c.08-.79.12-1.59.15-2.33h.21a.6.6,0,0,0,.3.28,1.3,1.3,0,0,0,.43,0h5.41a.61.61,0,0,0,.63-.32h.23a21.06,21.06,0,0,0,.12,2.26l-.23.06c-.32-1.51-.83-1.69-2-1.69h-1.2v6.52c0,1,.1,1.24,1.5,1.3v.19h-3.63Z"/><path class="cls-3" d="M416.33,48c1.23-.05,1.33-.28,1.33-1.33v-5.3c0-1-.1-1.26-1.21-1.31v-.2h3.91a5.29,5.29,0,0,1,3.75,1,3.6,3.6,0,0,1,1.09,2.75c0,3.53-3.09,4.53-5.78,4.53h-3.09Zm2-1.37c0,1,.22,1.24,1.56,1.24,3.29,0,4.39-2.12,4.39-3.89a3.62,3.62,0,0,0-1.88-3.47,7.79,7.79,0,0,0-2.77-.39c-.68,0-1.06,0-1.18,0s-.12,0-.12.25Z"/></svg>