<svg id="图层_1" data-name="图层 1" xmlns="http://www.w3.org/2000/svg" viewBox="0 0 255.12 33.44"><defs><style>.cls-1{fill:#ce2a1f;}.cls-2{fill:#fff;}.cls-3{fill:#040000;}</style></defs><title>未标题-1</title><path class="cls-1" d="M27.27,27.28H0V0H27.27ZM.14,27.14h27V.14H.14Z"/><path class="cls-1" d="M26.15,26.18h-25v-25h25ZM1.26,26H26V1.28H1.26Z"/><rect class="cls-1" x="2.14" y="2.16" width="22.99" height="23.01"/><path class="cls-2" d="M12.73,11.77h-.3a4.19,4.19,0,0,0-.49-1.26,3.63,3.63,0,0,0-.76-.92,3.41,3.41,0,0,0-1-.56,3.3,3.3,0,0,0-1.12-.19,3.43,3.43,0,0,0-1,.14,3.31,3.31,0,0,0-2,1.9,6.4,6.4,0,0,0-.5,2.61,9.8,9.8,0,0,0,.08,1.35,7,7,0,0,0,.27,1.21,4.92,4.92,0,0,0,.46,1A3.15,3.15,0,0,0,7,17.8a3.14,3.14,0,0,0,2,.59,4.77,4.77,0,0,0,1-.1,3.54,3.54,0,0,0,.87-.33,4.14,4.14,0,0,0,.85-.6,8.44,8.44,0,0,0,.88-.9v.9a7.94,7.94,0,0,1-.88.79,4.73,4.73,0,0,1-.95.54,4.34,4.34,0,0,1-1,.32,6.47,6.47,0,0,1-1.2.1,7.38,7.38,0,0,1-1.59-.17,6.21,6.21,0,0,1-1.39-.51,5.22,5.22,0,0,1-1.15-.82,4.6,4.6,0,0,1-.86-1.1,5.48,5.48,0,0,1-.7-2.69,5.69,5.69,0,0,1,2.9-5,6.65,6.65,0,0,1,1.37-.55,6,6,0,0,1,1.46-.18,5.6,5.6,0,0,1,1.15.11,6.9,6.9,0,0,1,1.18.36,3.55,3.55,0,0,0,.9.29.6.6,0,0,0,.44-.18,1,1,0,0,0,.23-.58h.3Z"/><path class="cls-2" d="M22.71,17a5.94,5.94,0,0,0,1,1.29,1.45,1.45,0,0,0,.35.18,1.24,1.24,0,0,0,.38.09v.29h-5.1v-.29a4.08,4.08,0,0,0,.49-.07.85.85,0,0,0,.3-.12.29.29,0,0,0,.14-.15.39.39,0,0,0,0-.18.5.5,0,0,0-.07-.25l-.19-.34-.35-.53-1.54-2.27-1.59,2a2.9,2.9,0,0,0-.72,1.2.61.61,0,0,0,.18.42.93.93,0,0,0,.55.28,3,3,0,0,0,.66,0v.29h-4v-.29a2.58,2.58,0,0,0,1.09-.37,9.86,9.86,0,0,0,1.46-1.47l2.07-2.54-2.67-3.94-.51-.75a3.68,3.68,0,0,1-.23-.33A1.68,1.68,0,0,0,14,8.82a1.78,1.78,0,0,0-.56-.16V8.38h5.21v.28h-.26a1,1,0,0,0-.63.15.43.43,0,0,0-.18.36.47.47,0,0,0,.07.28l.51.81,1.31,2L20.6,10.9a6.87,6.87,0,0,0,.64-.89,1.35,1.35,0,0,0,.21-.59.72.72,0,0,0-.06-.29.61.61,0,0,0-.19-.24,1,1,0,0,0-.36-.17,2,2,0,0,0-.54-.06V8.38h3.84v.28a2.1,2.1,0,0,0-.72.11,2.34,2.34,0,0,0-.61.4c-.12.11-.45.49-1,1.14l-2,2.4Z"/><path class="cls-1" d="M4.19,31.55a1.34,1.34,0,0,1-1.45,1A1.45,1.45,0,0,1,1.19,31a1.5,1.5,0,0,1,1.58-1.55,1.29,1.29,0,0,1,1.42,1H3.56a.76.76,0,0,0-.8-.49.92.92,0,0,0-.92,1c0,.59.31,1.08.93,1.08a.75.75,0,0,0,.79-.49Z"/><path class="cls-1" d="M5.41,29.33v1.29a.79.79,0,0,1,.74-.37c.51,0,.83.31.83.92v1.29h-.6V31.24c0-.3-.09-.52-.43-.52s-.54.28-.54.7v1H4.82V29.33Z"/><path class="cls-1" d="M8,31.53a.56.56,0,0,0,.6.54.51.51,0,0,0,.51-.25H9.7a1.06,1.06,0,0,1-1.12.7,1.08,1.08,0,0,1-1.17-1.13,1.1,1.1,0,0,1,1.17-1.14,1.07,1.07,0,0,1,1.15,1.14v.14Zm1.12-.38a.48.48,0,0,0-.54-.47.51.51,0,0,0-.57.47Z"/><path class="cls-1" d="M10.08,30.85c0-.18,0-.38,0-.54h.58a2.73,2.73,0,0,1,0,.32.86.86,0,0,1,1.57.51v1.32h-.59V31.24c0-.28-.11-.52-.45-.52s-.53.26-.53.68v1.06h-.59Z"/><path class="cls-1" d="M15,32.21c0,.78-.32,1.23-1.22,1.23s-1.09-.52-1.13-.76h.6c.06.16.18.31.56.31s.6-.32.6-.74v-.1a.76.76,0,0,1-.74.34,1,1,0,0,1-1-1.08,1.11,1.11,0,0,1,1.09-1.16c.47,0,.64.2.69.33,0-.08,0-.21,0-.27H15v1.9Zm-1.76-.82a.59.59,0,0,0,.59.64c.38,0,.59-.23.59-.66s-.2-.65-.57-.65A.61.61,0,0,0,13.28,31.39Z"/><path class="cls-1" d="M18.72,32.46l-.82-1.1h0l-.79,1.1h-.7L17.55,31,16.44,29.5h.73l.76,1h0l.76-1h.68l-1.12,1.42,1.18,1.54Z"/><path class="cls-1" d="M19.7,29.33h.59v.53H19.7Zm0,1h.59v2.15H19.7Z"/><path class="cls-1" d="M23.2,31.88c0,.26,0,.53,0,.58h-.56a2.3,2.3,0,0,1,0-.26.84.84,0,0,1-.78.32c-.59,0-.82-.36-.82-.7,0-.56.49-.71,1.12-.71h.47V31c0-.19-.08-.35-.44-.35s-.41.13-.44.27h-.59c0-.27.21-.69,1-.69s1,.42,1,.78Zm-.58-.39h-.46c-.39,0-.56.1-.56.3s.13.3.41.3c.44,0,.61-.22.61-.55Z"/><path class="cls-1" d="M26.08,31.39a1.21,1.21,0,1,1-1.2-1.14A1.13,1.13,0,0,1,26.08,31.39Zm-1.81,0a.62.62,0,0,0,.6.68.6.6,0,0,0,.6-.67.61.61,0,0,0-.6-.69A.6.6,0,0,0,24.27,31.39Z"/><path class="cls-3" d="M43,17.06a17.26,17.26,0,0,0,1.46-6.14h2a20.39,20.39,0,0,1-1.16,6.14ZM44.22,6.59a20.33,20.33,0,0,0-.91-3h1.95a14.31,14.31,0,0,1,1,3Zm.19,3.66a15.17,15.17,0,0,0-1-3h2a19,19,0,0,1,1,3.05ZM47,11.71V10.19h3.9V8.6H53v1.59h4v1.52H55.42a6.33,6.33,0,0,0,1.7,3.65V16.7a5.66,5.66,0,0,1-3.65-5H53v5.6H50.92v-5.6h-.55a5.4,5.4,0,0,1-3.53,5V15.36a5.65,5.65,0,0,0,1.64-3.65Zm.19-5V4.1H56.7V6.72h-2V5.5H49.21V6.72Zm0,2.67V8.3a3.06,3.06,0,0,0,2.55-1.89h2Q50.86,9.28,47.21,9.39Zm9.43,0q-3.48-.18-4.38-3H54.2A3.2,3.2,0,0,0,56.64,8.3Z"/><path class="cls-3" d="M59.64,6.9V5.44h1.28V3.31H63V5.44H64.2V6.9H63V13l.37-.19a4.94,4.94,0,0,0,1-.42V14a13.27,13.27,0,0,1-4.8,1.83V13.9a9.78,9.78,0,0,0,1.34-.31V6.9Zm4.07,10.53V16a3.14,3.14,0,0,0,1.16-2.74V3.55h1.95v9.37C67,15.12,66,16.62,63.71,17.43ZM68,16.09V4h2V16.09Zm3.17,1.28V3.55h2V17.37Z"/><path class="cls-3" d="M76.21,6.11V4.52h5.53V3.31h2.74V4.52h5.6V6.11Zm.85,9.8V7.57h4.87V6.41h2.43V7.57h5v6c0,1.55-.75,2.32-2.37,2.32H85.46V14.32h.79c.61,0,.89-.28.85-.85V9.15H84.36v8.22H81.93V9.15H79.31v6.76Z"/><path class="cls-3" d="M92.78,17.37V16a4.32,4.32,0,0,0,1-3.41V5.62H100V3.25h2.25a23.39,23.39,0,0,0,0,2.37h1.4v-2h1.82v2h1.22V7.2h-4.44a29.79,29.79,0,0,0,.49,4.81,14.31,14.31,0,0,0,1.46-3.83h2.06a14.24,14.24,0,0,1-3,6.08c.45,1.06,1,1.57,1.52,1.53s.61-.29.61-1H107c0,1.67-.71,2.48-2.13,2.44a3.41,3.41,0,0,1-3-1.65,31.69,31.69,0,0,1-2.67,1.71V15.79c.73-.57,1.4-1.14,2-1.71l-.18-.55a4.15,4.15,0,0,0-.12-.48,31.48,31.48,0,0,1-.79-5.85H95.94V9.09h3.65V13.9a1.66,1.66,0,0,1-1.88,1.95h-1.4v-1.4h.61c.48,0,.7-.21.66-.73V10.55H95.94v1.64A4.93,4.93,0,0,1,92.78,17.37Z"/><path class="cls-3" d="M109,9.64V8.48a3,3,0,0,0,1.59-2.07h1.94A4.21,4.21,0,0,1,109,9.64Zm7,7.67a14,14,0,0,1-3.22-1.89A14.9,14.9,0,0,1,109,17.31v-1.4a10.42,10.42,0,0,0,2.68-1.65,12.23,12.23,0,0,1-2-4.5h2a10.31,10.31,0,0,0,1.16,3.1A10.59,10.59,0,0,0,114,9.76h2a12.26,12.26,0,0,1-2.13,4.56A6.87,6.87,0,0,0,116,15.85ZM109.29,5.92V4.52h2.43V3.37H114V4.52h2.31v1.4Zm7.24,3.66a3.89,3.89,0,0,1-3.41-3.17h1.95a3,3,0,0,0,1.21,1.89V7.38a6.38,6.38,0,0,0,1.4-3.95h2.13c-.12.61-.24,1.15-.36,1.64h3.77V6.53h-.85a12.8,12.8,0,0,1-1.71,6.94,15.45,15.45,0,0,0,2.44,2.38v1.52a13,13,0,0,1-3.47-2.5,17.34,17.34,0,0,1-3.29,2.5V15.85a14.55,14.55,0,0,0,2.19-2.44A12.86,12.86,0,0,1,117,8.54a.83.83,0,0,0-.42.25Zm2.37-3a7.83,7.83,0,0,1-.85,1.16h.67a18.93,18.93,0,0,0,.91,3.71,14.8,14.8,0,0,0,.85-4.87Z"/><path class="cls-3" d="M125.67,5.8V4.28h4.69V5.8H129.2v7.31c.41-.12.86-.25,1.34-.37v1.58a17.82,17.82,0,0,1-4.93,1.22V13.66c.49-.09,1-.15,1.4-.19V5.8Zm4.57,11.51V15.85q3.88-1.1,3.77-4.39V9.09h2.13v2.43c0,2.07,1.16,3.52,3.59,4.33v1.46a7.4,7.4,0,0,1-4.63-2.62Q133.89,16.58,130.24,17.31Zm.48-12V3.79h8.95V5.32H136a10.89,10.89,0,0,1-.31,1.4h3.53V13.9H137.3V8.24h-4.45V13.9h-1.94V6.72h2.61a10.89,10.89,0,0,0,.31-1.4Z"/><path class="cls-3" d="M143.4,16.88V4H155V14.63a2,2,0,0,1-2.25,2.25Zm2.37-11.32V7.81h6.88V5.56Zm0,3.77v2.26h6.88V9.33Zm0,6.09h6c.6,0,.89-.26.85-.91V13.17h-6.88Z"/><path class="cls-3" d="M162.53,6.59a2.66,2.66,0,0,1-.13-.54l-.18-.73h-.61a4.54,4.54,0,0,1-2.73,1.46V5.68a3.06,3.06,0,0,0,1.64-2.31h1.94l-.18.67h3.53V5.32h-1.88a4.08,4.08,0,0,1,.36,1.27Zm6.69-.06A5.79,5.79,0,0,0,169,5.32h-.73a3,3,0,0,1-1.33,1.09v.67h5.53V9.39h-1.52v1.46c0,1.26-.53,1.87-1.7,1.83h-6.63v.79h8.76v1.71c0,1.3-.57,1.92-1.83,1.88h-9.18V9.39H159V7.08h5.41V6.41h1.16V5.74A2.93,2.93,0,0,0,167,3.37h2a1.05,1.05,0,0,1-.07.3,2,2,0,0,1-.12.37h3.84V5.32h-2A3.49,3.49,0,0,1,171,6.53Zm-8,1.89v.85h8.94V8.42Zm1.34,2.07v1h5.59c.41,0,.59-.14.55-.54v-.43Zm6.63,4.2h-6.63v1.16h6c.45,0,.65-.21.61-.61Z"/><path class="cls-3" d="M175.32,5.5V4h4.44V5.5h-1.09V8.72h1v1.53h-1V14l1.22-.3v1.46a23.23,23.23,0,0,1-4.75,1.09v-1.7l1.4-.12v-4.2h-1.16V8.72h1.16V5.5Zm4.93,5.72V3.85h8.46V9.21a1.72,1.72,0,0,1-2,2h-1.16V12.5h3.29V14h-3.29v1.46h3.84v1.34h-9.86V15.48h3.9V14h-3.23V12.5h3.23V11.22Zm1.89-5.9v1.4h1.28V5.32Zm0,4.44h1.28V8.24h-1.28Zm4.68-4.44h-1.28v1.4h1.28ZM186,9.76c.61,0,.89-.28.85-.85V8.24h-1.28V9.76Z"/><path class="cls-3" d="M191.89,6.17V4.58h4.2a1.86,1.86,0,0,0,.12-.36,3.66,3.66,0,0,0,.31-.91H199a6.14,6.14,0,0,1-.3.91,1.86,1.86,0,0,1-.12.36h7.17V6.17h-7.84a4,4,0,0,1-.73,1.28h7.24v7.73q.06,2.13-2,2.07h-1.7v-1.4h.79c.44,0,.64-.23.6-.67v-.67h-5.78v2.8H194V10.85c-.32.21-.81.53-1.46,1a6.11,6.11,0,0,0-.79.49V10.61a12.53,12.53,0,0,0,3.71-4.44ZM196.33,9v1.22h5.78V9Zm0,2.68V13h5.78V11.71Z"/><path class="cls-3" d="M208.59,17.37V3.85h4.8V5.32a9.92,9.92,0,0,1-.91,3.83,4.77,4.77,0,0,1,1,3.1c0,2.07-.93,3.11-2.8,3.11v-1.7c.73,0,1.1-.49,1.1-1.59a4.3,4.3,0,0,0-1-2.86,14.32,14.32,0,0,0,.73-3.89h-1.1V17.37Zm5.41,0V3.92h7.48v5A1.77,1.77,0,0,1,219.41,11H216v3.89a6.33,6.33,0,0,1,.91-.42c.2-.08.38-.17.55-.25v1.59A15.21,15.21,0,0,1,214,17.37Zm2-12V6.72h3.59V5.38Zm2.8,4.14c.56,0,.83-.25.79-.86V8.18H216V9.52Zm3.46,7.67a7.65,7.65,0,0,1-5.78-5.73h2a9.49,9.49,0,0,0,.67,1.83,3.9,3.9,0,0,0,1.22-1.83h1.82A4.46,4.46,0,0,1,220,14.32a6,6,0,0,0,2.31,1.53Z"/><path class="cls-3" d="M224.73,10.79V9.33a7.82,7.82,0,0,0,3.53-5.6h2.43A9.13,9.13,0,0,1,224.73,10.79Zm11,6.27c-.12-.44-.22-.85-.3-1.21a41.4,41.4,0,0,1-8,.67h-1.34V14.75A17.22,17.22,0,0,0,229.9,8.6h2.68a16.81,16.81,0,0,1-4.2,6.15,62.68,62.68,0,0,0,6.57-.3,17.48,17.48,0,0,0-.73-1.71l-.37-.85h2a22.5,22.5,0,0,1,2.07,5.17Zm3-6.27a9,9,0,0,1-6-7.06h2.43a7.85,7.85,0,0,0,3.53,5.6Z"/><path class="cls-3" d="M241.3,8.12V6.59h10.28V8.12Zm8.94,9.07V15.72h1.22c.61,0,.89-.26.85-.91V5.5H241.85V4h12.77v11a1.93,1.93,0,0,1-2.25,2.26Zm-7.91-2.13V9.33h8.16v3.53c0,1.51-.65,2.24-2.07,2.2Zm2.13-1.4h3.17a.65.65,0,0,0,.73-.74V10.73h-3.9Z"/><path class="cls-3" d="M46.75,25c-.13-.46-.33-1.09-1.11-1.09a.81.81,0,0,0-.87.89c0,.67.49.94,1,1.2.35.18,1.34.52,1.34,1.52A1.49,1.49,0,0,1,45.47,29a3.24,3.24,0,0,1-.81-.12,1.3,1.3,0,0,1-.35-.16,10.22,10.22,0,0,1-.19-1.26h.13c.13.43.47,1.34,1.41,1.34a.92.92,0,0,0,1-1c0-.81-.66-1.08-1.08-1.32-.08,0-1.26-.42-1.26-1.39a1.37,1.37,0,0,1,1.5-1.29,2.83,2.83,0,0,1,.94.17c0,.27.07.57.13,1.11Z"/><path class="cls-3" d="M48.79,26.12h3.4V24.79c0-.62-.06-.74-.76-.79v-.12h2V24c-.71.05-.77.17-.77.79V28c0,.63.06.75.75.8v.11h-2v-.11c.76-.05.82-.17.82-.8v-1.6h-3.4V28c0,.63.07.75.78.8v.11H47.63v-.11c.68-.05.74-.17.74-.8V24.79c0-.62-.06-.74-.77-.79v-.12h1.93V24c-.67.05-.74.17-.74.79Z"/><path class="cls-3" d="M53.78,28.77c.76,0,.81-.17.81-.79V24.85c0-.69-.06-.82-.73-.85v-.12h3.5c0,.28,0,.75.08,1.23l-.14,0c-.17-.82-.32-1.05-1.3-1.05h-.75c-.22,0-.23,0-.23.22v1.87H56c.64,0,.79-.08.91-.62H57V27h-.14c-.13-.62-.29-.65-.91-.65H55V28c0,.75.33.75,1,.75a1.64,1.64,0,0,0,1.23-.3,2.66,2.66,0,0,0,.45-.79h.14c-.07.29-.23,1-.29,1.27H53.78Z"/><path class="cls-3" d="M58.15,28.77c.47,0,.7-.19.76-.41A6.57,6.57,0,0,0,59,26.87V25.14c0-.71,0-.67-.18-.85a1,1,0,0,0-.74-.29v-.12h1L62.8,28.1h0V25.82c0-1.55,0-1.76-1-1.82v-.12h2V24c-.47,0-.67.19-.74.42a5.65,5.65,0,0,0-.08,1.4v3.12H63l-3.72-4.19h0v2.12a7.49,7.49,0,0,0,.07,1.47c.07.25.31.39.85.43v.11h-2Z"/><path class="cls-3" d="M64.69,23.69a.29.29,0,0,0,.15.17,1.1,1.1,0,0,0,.28,0H68.4l0,.1c-1.23,1.53-2.48,3.07-3.69,4.66.29,0,1,.05,1.59.05,1.49,0,1.76-.2,2.17-1.1l.13,0c-.05.21-.2.89-.29,1.27H64.12l0-.08c1.21-1.57,2.47-3.11,3.71-4.72H66.21c-1.21,0-1.32.19-1.58,1h-.15c0-.41.09-.95.1-1.42Z"/><path class="cls-3" d="M70.07,26.12h3.4V24.79c0-.62-.06-.74-.75-.79v-.12h2V24c-.71.05-.78.17-.78.79V28c0,.63.07.75.75.8v.11h-2v-.11c.76-.05.82-.17.82-.8v-1.6h-3.4V28c0,.63.07.75.78.8v.11H68.91v-.11c.68-.05.74-.17.74-.8V24.79c0-.62-.06-.74-.77-.79v-.12h1.93V24c-.67.05-.74.17-.74.79Z"/><path class="cls-3" d="M75.06,28.77c.76,0,.81-.17.81-.79V24.85c0-.69-.06-.82-.73-.85v-.12h3.51c0,.28,0,.75.07,1.23l-.14,0c-.17-.82-.32-1.05-1.3-1.05h-.75c-.22,0-.23,0-.23.22v1.87h.94c.64,0,.79-.08.91-.62h.14V27h-.14c-.12-.62-.29-.65-.91-.65H76.3V28c0,.75.33.75,1,.75.49,0,1,0,1.23-.3a2.66,2.66,0,0,0,.45-.79h.14c-.07.29-.22,1-.29,1.27H75.06Z"/><path class="cls-3" d="M79.43,28.77c.47,0,.7-.19.76-.41a6.57,6.57,0,0,0,.09-1.49V25.14c0-.71,0-.67-.18-.85a1,1,0,0,0-.74-.29v-.12h1l3.73,4.22h0V25.82c0-1.55,0-1.76-.95-1.82v-.12h2V24c-.47,0-.67.19-.74.42a6.21,6.21,0,0,0-.08,1.4v3.12h-.09l-3.72-4.19h0v2.12a8.44,8.44,0,0,0,.07,1.47c.07.25.31.39.85.43v.11h-2Z"/><path class="cls-3" d="M92.05,27.43a12.42,12.42,0,0,1-.41,1.35A10.21,10.21,0,0,1,90,29c-2.12,0-3-1.34-3-2.54,0-1.6,1.35-2.7,3.18-2.7a5.52,5.52,0,0,1,1.52.23c.06.4.1.78.15,1.24l-.14,0C91.5,24.32,91,24,89.9,24a2.14,2.14,0,0,0-2.31,2.3A2.31,2.31,0,0,0,90,28.81a2,2,0,0,0,2-1.42Z"/><path class="cls-3" d="M93.57,26.12H97V24.79c0-.62-.06-.74-.76-.79v-.12h2V24c-.71.05-.77.17-.77.79V28c0,.63.06.75.75.8v.11h-2v-.11c.76-.05.82-.17.82-.8v-1.6h-3.4V28c0,.63.07.75.78.8v.11H92.41v-.11c.68-.05.74-.17.74-.8V24.79c0-.62-.06-.74-.77-.79v-.12h1.93V24c-.67.05-.74.17-.74.79Z"/><path class="cls-3" d="M98.56,28.77c.76,0,.81-.17.81-.79V24.85c0-.69-.06-.82-.73-.85v-.12h3.5c0,.28,0,.75.08,1.23l-.14,0c-.17-.82-.32-1.05-1.3-1.05H100c-.21,0-.22,0-.22.22v1.87h.94c.64,0,.79-.08.91-.62h.14V27h-.14c-.13-.62-.3-.65-.91-.65H99.8V28c0,.75.33.75,1,.75a1.64,1.64,0,0,0,1.23-.3,2.66,2.66,0,0,0,.45-.79h.14c-.07.29-.23,1-.29,1.27H98.56Z"/><path class="cls-3" d="M102.93,28.77c.47,0,.7-.19.76-.41a6.57,6.57,0,0,0,.09-1.49V25.14c0-.71,0-.67-.19-.85s-.3-.25-.73-.29v-.12h1l3.72,4.22h0V25.82c0-1.55,0-1.76-.95-1.82v-.12h2V24c-.47,0-.67.19-.74.42a5.48,5.48,0,0,0-.09,1.4v3.12h-.08L104,24.75h0v2.12a7.49,7.49,0,0,0,.07,1.47c.07.25.31.39.85.43v.11h-2Z"/><path class="cls-3" d="M114.29,26.75c-.48.07-.5.18-.5.53V28a2.14,2.14,0,0,0,.07.68A8.46,8.46,0,0,1,112,29c-1.76,0-3-1.05-3-2.57,0-1.75,1.49-2.67,3.08-2.67a5.9,5.9,0,0,1,1.57.22c0,.23.07.69.14,1.18l-.13,0A1.5,1.5,0,0,0,111.93,24a2.13,2.13,0,0,0-2.36,2.36A2.32,2.32,0,0,0,112,28.8a3.49,3.49,0,0,0,1-.12c.24-.08.34-.2.34-.55v-.69c0-.49,0-.63-1-.69v-.11h1.89Z"/><path class="cls-3" d="M114.55,23.88h1.78V24c-.4,0-.55.08-.55.19a.58.58,0,0,0,.11.24c.28.45.66,1,1.06,1.49a6.41,6.41,0,0,0,1-1.66c0-.15-.16-.22-.55-.26v-.12h1.83V24a1.37,1.37,0,0,0-1.12.67l-1.06,1.43L118.41,28c.37.51.59.73,1.16.79v.1h-1.86v-.1c.32,0,.5-.1.5-.24a.41.41,0,0,0-.06-.19c-.23-.35-.84-1.21-1.31-1.83-.49.73-.83,1.3-1.12,1.79a.54.54,0,0,0-.08.22c0,.15.15.21.53.24v.11h-1.79v-.11a1.25,1.25,0,0,0,.93-.48,20.66,20.66,0,0,0,1.41-1.95c-.46-.68-.9-1.32-1.1-1.56-.4-.58-.45-.71-1.07-.78Z"/><path class="cls-3" d="M119.69,28.77c.71,0,.77-.17.77-.8V24.79c0-.62-.06-.75-.77-.79v-.12h2V24c-.69,0-.76.17-.76.79V28c0,.63.07.77.76.8v.11h-2Z"/><path class="cls-3" d="M125.33,28.77c.46-.06.63-.11.63-.3a7.68,7.68,0,0,0-.54-1.57h-1.86a7.56,7.56,0,0,0-.48,1.48c0,.27.22.32.67.39v.11h-1.83v-.11c.56-.11.67-.18,1-.9l1.74-4.07.1,0,.54,1.48c.37,1,.73,2,1,2.76.24.6.31.68.87.77v.11h-1.85Zm-.78-4.26c-.32.71-.63,1.47-.89,2.14h1.69l-.78-2.14Z"/><path class="cls-3" d="M133,26.31A2.7,2.7,0,0,1,130.18,29a2.57,2.57,0,0,1-2.67-2.55,2.72,2.72,0,0,1,2.84-2.69A2.57,2.57,0,0,1,133,26.31Zm-4.92-.09a2.37,2.37,0,0,0,2.3,2.59,2,2,0,0,0,2.07-2.16c0-1.82-1-2.69-2.32-2.69A2,2,0,0,0,128.07,26.22Z"/><path class="cls-3" d="M135,28.77c.69,0,.76-.17.76-.8V24.79c0-.63,0-.75-.71-.79v-.12H137c.51,0,1.76.07,1.76,1.39a1.65,1.65,0,0,1-1.88,1.57l-.65-.18V28c0,.62.06.73.88.78v.11H135Zm1.19-2.28a1.69,1.69,0,0,0,.69.12,1.18,1.18,0,0,0,1.3-1.3c0-.87-.5-1.27-1.5-1.27a2,2,0,0,0-.41,0s-.08,0-.08.2Z"/><path class="cls-3" d="M139.22,28.77c.72,0,.78-.17.78-.8v-3.2c0-.63-.06-.72-.74-.77v-.12h1.9c.8,0,1.67.24,1.67,1.27a1.41,1.41,0,0,1-1,1.35,9.4,9.4,0,0,0,.71,1.1c.39.47.95,1.16,1.36,1.25l0,.11c-.73,0-1.12,0-2.34-2-.2-.29-.44-.29-1.12-.29V28c0,.63.06.77.75.8v.11h-2Zm1.71-2.28a1.54,1.54,0,0,0,1-.24,1.16,1.16,0,0,0,.42-1c0-.86-.56-1.23-1.39-1.23a3.4,3.4,0,0,0-.43,0s-.07,0-.07.17v2.26Z"/><path class="cls-3" d="M149.68,26.31A2.7,2.7,0,0,1,146.87,29a2.57,2.57,0,0,1-2.67-2.55A2.72,2.72,0,0,1,147,23.76,2.57,2.57,0,0,1,149.68,26.31Zm-4.92-.09a2.36,2.36,0,0,0,2.3,2.59,2,2,0,0,0,2.07-2.16c0-1.82-1-2.69-2.32-2.69A2,2,0,0,0,144.76,26.22Z"/><path class="cls-3" d="M150.12,30.07c.71-.28.95-.72.95-2.5V24.79c0-.62,0-.75-.79-.79v-.12h1.94V24c-.66,0-.73.17-.73.79v3.09c0,1.6-.45,1.95-1.33,2.31Z"/><path class="cls-3" d="M152.5,28.77c.76,0,.81-.17.81-.79V24.85c0-.69-.06-.82-.73-.85v-.12h3.5c0,.28,0,.75.08,1.23l-.14,0c-.17-.82-.32-1.05-1.3-1.05H154c-.22,0-.23,0-.23.22v1.87h.94c.64,0,.79-.08.91-.62h.14V27h-.14c-.13-.62-.3-.65-.91-.65h-.94V28c0,.75.33.75,1,.75a1.64,1.64,0,0,0,1.23-.3,2.66,2.66,0,0,0,.45-.79h.14c-.07.29-.23,1-.29,1.27H152.5Z"/><path class="cls-3" d="M162,27.43a12.26,12.26,0,0,1-.42,1.35A10.21,10.21,0,0,1,160,29c-2.11,0-3-1.34-3-2.54,0-1.6,1.36-2.7,3.18-2.7a5.45,5.45,0,0,1,1.52.23c.07.4.11.78.16,1.24l-.14,0c-.23-.93-.77-1.29-1.82-1.29a2.13,2.13,0,0,0-2.31,2.3,2.31,2.31,0,0,0,2.36,2.55,2,2,0,0,0,2-1.42Z"/><path class="cls-3" d="M163.43,28.77c.81,0,.87-.17.87-.78V24.08h-.5c-1.06,0-1.16.17-1.41,1h-.13c.05-.47.08-.95.09-1.4h.13a.35.35,0,0,0,.18.17.9.9,0,0,0,.26,0h3.24a.37.37,0,0,0,.38-.19h.14a11.26,11.26,0,0,0,.07,1.36l-.13,0c-.2-.9-.5-1-1.19-1h-.72V28c0,.61.06.74.9.78v.11h-2.18Z"/><path class="cls-3" d="M168.74,23.88h1l2.12,4.24L174,23.88h1.16V24c-.75.07-.82.15-.79.95l.06,2.83c0,.82,0,.93.81,1v.11h-2v-.11c.71-.05.73-.16.72-1l0-3.35h0l-2.19,4.37h-.07l-2-4.1h0l-.1,2.15c0,.38,0,.65,0,.87,0,.76.08,1,.83,1.05v.11h-2v-.11c.5,0,.67-.17.74-.49a11.61,11.61,0,0,0,.17-1.55l.12-1.46c0-.21,0-.39,0-.53,0-.57-.13-.67-.75-.74Z"/><path class="cls-3" d="M178.9,28.77c.46-.06.63-.11.63-.3A8.39,8.39,0,0,0,179,26.9h-1.87a7.56,7.56,0,0,0-.48,1.48c0,.27.22.32.67.39v.11h-1.83v-.11c.56-.11.67-.18,1-.9l1.75-4.07.09,0,.54,1.48c.37,1,.74,2,1,2.76.24.6.31.68.87.77v.11H178.9Zm-.78-4.26c-.33.71-.64,1.47-.9,2.14h1.69l-.78-2.14Z"/><path class="cls-3" d="M181,28.77c.48,0,.7-.19.77-.41a7.26,7.26,0,0,0,.09-1.49V25.14c0-.71,0-.67-.19-.85a1,1,0,0,0-.73-.29v-.12h1l3.72,4.22h0V25.82c0-1.55,0-1.76-1-1.82v-.12h2V24c-.46,0-.67.19-.74.42a6.21,6.21,0,0,0-.08,1.4v3.12h-.09l-3.71-4.19h0v2.12a9.68,9.68,0,0,0,.07,1.47c.08.25.32.39.86.43v.11h-2Z"/><path class="cls-3" d="M190.19,28.77c.46-.06.63-.11.63-.3a7.68,7.68,0,0,0-.54-1.57h-1.86a7.56,7.56,0,0,0-.48,1.48c0,.27.22.32.67.39v.11h-1.83v-.11c.56-.11.67-.18,1-.9l1.75-4.07.1,0,.54,1.48c.37,1,.73,2,1,2.76.24.6.31.68.87.77v.11h-1.85Zm-.78-4.26c-.32.71-.63,1.47-.89,2.14h1.69l-.78-2.14Z"/><path class="cls-3" d="M197.66,26.75c-.47.07-.5.18-.5.53V28a1.86,1.86,0,0,0,.08.68,8.57,8.57,0,0,1-1.87.32c-1.76,0-3-1.05-3-2.57,0-1.75,1.49-2.67,3.08-2.67A6,6,0,0,1,197,24c0,.23.06.69.14,1.18l-.13,0A1.51,1.51,0,0,0,195.3,24a2.14,2.14,0,0,0-2.36,2.36,2.33,2.33,0,0,0,2.43,2.48,3.54,3.54,0,0,0,1-.12c.24-.08.34-.2.34-.55v-.69c0-.49,0-.63-1-.69v-.11h1.88Z"/><path class="cls-3" d="M198,28.77c.76,0,.81-.17.81-.79V24.85c0-.69-.06-.82-.73-.85v-.12h3.51c0,.28,0,.75.07,1.23l-.14,0c-.17-.82-.32-1.05-1.3-1.05h-.75c-.22,0-.23,0-.23.22v1.87h.94c.64,0,.79-.08.91-.62h.14V27h-.14c-.12-.62-.29-.65-.91-.65h-.94V28c0,.75.33.75,1,.75.49,0,1,0,1.23-.3a2.66,2.66,0,0,0,.45-.79H202c-.07.29-.22,1-.29,1.27H198Z"/><path class="cls-3" d="M202.54,23.88h1l2.13,4.24,2.14-4.24H209V24c-.75.07-.83.15-.79.95l.05,2.83c0,.82.06.93.82,1v.11h-2v-.11c.71-.05.74-.16.73-1l0-3.35h0l-2.18,4.37h-.07l-2-4.1h0l-.11,2.15c0,.38,0,.65,0,.87,0,.76.08,1,.83,1.05v.11h-1.94v-.11c.5,0,.67-.17.73-.49a11,11,0,0,0,.18-1.55l.11-1.46c0-.21,0-.39,0-.53,0-.57-.14-.67-.75-.74Z"/><path class="cls-3" d="M209.4,28.77c.76,0,.82-.17.82-.79V24.85c0-.69-.07-.82-.73-.85v-.12H213c0,.28,0,.75.07,1.23l-.13,0c-.17-.82-.33-1.05-1.3-1.05h-.76c-.22,0-.22,0-.22.22v1.87h.94c.64,0,.79-.08.91-.62h.14V27h-.14c-.13-.62-.3-.65-.91-.65h-.94V28c0,.75.33.75,1,.75a1.65,1.65,0,0,0,1.24-.3,2.66,2.66,0,0,0,.45-.79h.14c-.08.29-.23,1-.29,1.27H209.4Z"/><path class="cls-3" d="M213.77,28.77c.48,0,.7-.19.77-.41a7.26,7.26,0,0,0,.09-1.49V25.14c0-.71,0-.67-.19-.85a1,1,0,0,0-.73-.29v-.12h1l3.72,4.22h0V25.82c0-1.55,0-1.76-.95-1.82v-.12h2V24c-.46,0-.67.19-.74.42a6.21,6.21,0,0,0-.08,1.4v3.12h-.09l-3.71-4.19h0v2.12a9.68,9.68,0,0,0,.07,1.47c.08.25.32.39.86.43v.11h-2Z"/><path class="cls-3" d="M220.85,28.77c.8,0,.86-.17.86-.78V24.08h-.5c-1.06,0-1.16.17-1.4,1h-.13c0-.47.07-.95.09-1.4h.13a.31.31,0,0,0,.17.17,1,1,0,0,0,.26,0h3.25a.38.38,0,0,0,.38-.19h.13c0,.38,0,.88.08,1.36l-.14,0c-.19-.9-.5-1-1.18-1h-.72V28c0,.61.05.74.89.78v.11h-2.17Z"/><path class="cls-3" d="M231.13,27.43a12.26,12.26,0,0,1-.42,1.35,10.21,10.21,0,0,1-1.62.22c-2.11,0-3-1.34-3-2.54,0-1.6,1.36-2.7,3.18-2.7a5.45,5.45,0,0,1,1.52.23c.07.4.11.78.16,1.24l-.14,0C230.57,24.32,230,24,229,24a2.13,2.13,0,0,0-2.31,2.3A2.31,2.31,0,0,0,229,28.81a2,2,0,0,0,2-1.42Z"/><path class="cls-3" d="M237,26.31A2.71,2.71,0,0,1,234.18,29a2.57,2.57,0,0,1-2.66-2.55,2.71,2.71,0,0,1,2.84-2.69A2.57,2.57,0,0,1,237,26.31Zm-4.92-.09a2.36,2.36,0,0,0,2.3,2.59,2,2,0,0,0,2.07-2.16c0-1.82-1-2.69-2.32-2.69A2,2,0,0,0,232.08,26.22Z"/><path class="cls-3" d="M237.82,28.61a.36.36,0,1,1,.71,0,.36.36,0,1,1-.71,0Z"/><path class="cls-3" d="M239.47,29.57c.34-.14.55-.34.55-.62a.52.52,0,0,0-.45-.51.11.11,0,0,1-.1-.12.3.3,0,0,1,.32-.29.72.72,0,0,1,.61.77c0,.52-.46.79-.85.93Z"/><path class="cls-3" d="M244.84,27.64c-.05.26-.23.89-.29,1.24h-3.5v-.11c.68,0,.74-.17.74-.84V24.79c0-.62-.06-.75-.77-.79v-.12h2V24c-.73,0-.8.17-.8.79v3c0,.85.19.87,1,.87a1.49,1.49,0,0,0,1.06-.29,3.25,3.25,0,0,0,.42-.76Z"/><path class="cls-3" d="M246.17,28.77c.81,0,.87-.17.87-.78V24.08h-.5c-1.06,0-1.16.17-1.41,1H245c0-.47.07-.95.08-1.4h.13a.35.35,0,0,0,.18.17.94.94,0,0,0,.26,0h3.25a.36.36,0,0,0,.37-.19h.14a11.26,11.26,0,0,0,.07,1.36l-.13,0c-.2-.9-.5-1-1.19-1h-.72V28c0,.61.06.74.9.78v.11h-2.18Z"/><path class="cls-3" d="M249.8,28.77c.73,0,.8-.17.8-.8V24.79c0-.62-.07-.75-.73-.79v-.12h2.35a3.22,3.22,0,0,1,2.25.63,2.21,2.21,0,0,1,.65,1.66c0,2.11-1.86,2.71-3.47,2.71H249.8ZM251,28c0,.61.13.74.93.74a2.32,2.32,0,0,0,2.64-2.33,2.19,2.19,0,0,0-1.13-2.09A4.9,4.9,0,0,0,251.8,24c-.41,0-.64,0-.71,0s-.07,0-.07.15Z"/></svg>