<svg id="图层_1" data-name="图层 1" xmlns="http://www.w3.org/2000/svg" viewBox="0 0 761.81 904.64"><defs><style>.cls-1{fill:#eaeef1;}</style></defs><title>9</title><path class="cls-1" d="M1331.74,1150.3l-64.25-92.77a26.37,26.37,0,0,1-4.79-15V872.21c0-171.89-135.43-311.09-302.43-311.19S657.74,700.32,657.74,872.1v170.47a26.13,26.13,0,0,1-4.79,15L588.7,1150.3a53,53,0,0,0-3.77,53.87,50.41,50.41,0,0,0,44.8,28.1h661a50.21,50.21,0,0,0,44.8-28.1A53,53,0,0,0,1331.74,1150.3Zm-652.92,4.28,35.84-51.84a104.63,104.63,0,0,0,18.94-60.17V872.21a236.69,236.69,0,0,1,66.49-165,222,222,0,0,1,320.56-.1c42.56,43.79,66.5,103.16,66.5,165v170.47a103.82,103.82,0,0,0,18.93,60.17l35.85,51.84Z" transform="translate(-579.32 -457.36)"/><path class="cls-1" d="M985.42,535.15H935c-20.88,0-37.78-17.41-37.78-38.9s16.9-38.89,37.78-38.89h50.4c20.88,0,37.78,17.41,37.78,38.89s-16.9,38.9-37.78,38.9Z" transform="translate(-579.32 -457.36)"/><path class="cls-1" d="M1048.45,1362H897.24c-20.88,0-37.78-17.41-37.78-38.9s16.9-38.89,37.78-38.89h151.21c20.88,0,37.78,17.41,37.78,38.89s-16.8,38.9-37.78,38.9Z" transform="translate(-579.32 -457.36)"/></svg>