<svg id="图层_1" data-name="图层 1" xmlns="http://www.w3.org/2000/svg" viewBox="0 0 40.95 40.95"><defs><style>.cls-1{fill:#eaedf0;}.cls-2{fill:#11274c;}.cls-3{fill:#f2953a;}</style></defs><title>未标题-1</title><rect class="cls-1" width="40.95" height="40.95" rx="20.35"/><path class="cls-2" d="M25.82,22.94a.47.47,0,0,0-.36-.46H16a.47.47,0,0,0-.5.19.48.48,0,0,0,0,.54.47.47,0,0,0,.5.19h9.49A.47.47,0,0,0,25.82,22.94Z"/><path class="cls-3" d="M16.34,19.9h8.54a1,1,0,0,0,.95-.95V15.46a1,1,0,0,0-.95-1H16.34a1,1,0,0,0-.95,1V19A1,1,0,0,0,16.34,19.9Zm0-4.44h8.54V19H16.34Z"/><path class="cls-2" d="M27,10.86H14.63a1.84,1.84,0,0,0-1.9,1.75V29a1.84,1.84,0,0,0,1.9,1.75H23a.44.44,0,0,0,.27-.09l.09-.06,5.32-4.83a.48.48,0,0,0,.19-.36V12.61A1.82,1.82,0,0,0,27,10.86Zm-4.45,19H14.63a.92.92,0,0,1-1-.84V12.62a.9.9,0,0,1,1-.84H27a.9.9,0,0,1,.95.82V24.93h-3.5a1.84,1.84,0,0,0-1.9,1.75Zm4.64-4-3.69,3.35V26.7a.91.91,0,0,1,.95-.84Z"/></svg>