<svg id="图层_1" data-name="图层 1" xmlns="http://www.w3.org/2000/svg" viewBox="0 0 40.95 40.95"><defs><style>.cls-1{fill:#eaedf0;}.cls-2{fill:#f2953a;}.cls-3{fill:#11274c;}</style></defs><title>未标题-1</title><rect class="cls-1" width="40.95" height="40.95" rx="20.35"/><path class="cls-2" d="M23.09,22a3.3,3.3,0,0,0,1.32-2.65,3.31,3.31,0,1,0-6.62,0A3.33,3.33,0,0,0,19.11,22a4.49,4.49,0,0,0-2.38,3.34.55.55,0,0,0,.55.62h0a.53.53,0,0,0,.54-.48,3.32,3.32,0,0,1,6.56,0,.56.56,0,0,0,.55.48h0a.55.55,0,0,0,.54-.62A4.49,4.49,0,0,0,23.09,22Zm-2-.43a2.21,2.21,0,1,1,2.21-2.21A2.2,2.2,0,0,1,21.1,21.57Z"/><path class="cls-3" d="M26.78,12.56a2,2,0,0,1,2.06,2.06v2.77H26v5.82h2.85V26a2,2,0,0,1-2.07,2.07H24V25.21H18.19v2.84H15.42A2,2,0,0,1,13.36,26V23.21H16.2V17.39H13.36V14.62a2,2,0,0,1,2.06-2.06h2.77V15.4H24V12.56h2.77m0-2.2h-5V13.2H20.39V10.36h-5a4.18,4.18,0,0,0-4.26,4.26v5H14V21H11.16v5a4.19,4.19,0,0,0,4.26,4.27h5V27.41h1.42v2.84h5A4.19,4.19,0,0,0,31.05,26V21H28.2V19.59H31v-5a4.19,4.19,0,0,0-4.26-4.26Z"/></svg>