<svg id="图层_1" data-name="图层 1" xmlns="http://www.w3.org/2000/svg" viewBox="0 0 40.95 40.95"><defs><style>.cls-1{fill:#eaedf0;}.cls-2{fill:#11274c;}.cls-3{fill:#f2953a;}</style></defs><title>未标题-1</title><rect class="cls-1" width="40.95" height="40.95" rx="20.35"/><path class="cls-2" d="M11.7,14.74V26.2a.93.93,0,0,0,.93.93h.17l1.95,1.95a.93.93,0,0,0,1.31,0L18,27.13H28.33a.92.92,0,0,0,.92-.93V14.74a.93.93,0,0,0-.92-.93H12.63A.93.93,0,0,0,11.7,14.74ZM28.47,26.35H17.68l-.23.23-2,2-2.27-2.27h-.65V14.59h16Z"/><rect class="cls-2" x="14.99" y="17.32" width="10.97" height="0.78"/><rect class="cls-3" x="14.99" y="20.02" width="10.97" height="0.78"/><rect class="cls-2" x="14.99" y="22.72" width="6.71" height="0.78"/></svg>