<svg id="图层_1" data-name="图层 1" xmlns="http://www.w3.org/2000/svg" viewBox="0 0 715.6 810.64"><defs><style>.cls-1{fill:#eaeef1;}</style></defs><title>10</title><path class="cls-1" d="M960.51,504.36c-150.12,0-270.21,120.09-270.21,270.21,0,102.08,54,189.15,138.11,234.19-114.09,45-201.16,144.11-225.18,270.21-3,15,6,33,24,36h6c15,0,27-9,30-24,27-141.11,150.11-243.19,294.23-246.19h6c147.12,0,267.22-120.1,267.22-270.22S1110.63,504.36,960.51,504.36Zm3,480.38h-9c-114.09-3-204.16-96.08-204.16-210.17,0-117.09,93.07-210.17,210.16-210.17s210.17,93.08,210.17,210.17C1170.68,888.66,1077.61,981.73,963.51,984.74Z" transform="translate(-602.66 -504.36)"/><path class="cls-1" d="M1158.67,1047.79c-15-9-33-6-42,9s-6,33,9,42c69,48,117.09,114.09,132.1,192.15,3,15,15,24,30,24h6c15-3,27-18,24-36-18-93.07-75.06-174.14-159.13-231.18Z" transform="translate(-602.66 -504.36)"/></svg>